<?xml version="1.0" encoding="UTF-8" standalone="no"?>
<!-- Created with Inkscape (http://www.inkscape.org/) -->
<svg xmlns="http://www.w3.org/2000/svg" xmlns:svg="http://www.w3.org/2000/svg" width="727.40106" height="530.00055" viewBox="0 0 192.45819 140.22931" version="1.1" id="svg863" xml:space="preserve">
  <defs id="defs860">
    <clipPath id="clip-0">
      <path clip-rule="nonzero" d="m 645,396 h 17 v 18 h -17 z m 0,0" id="path867"></path>
    </clipPath>
    <clipPath id="clip-1">
      <path clip-rule="nonzero" d="m 650.98047,396.79687 -0.52735,0.0586 c -2.73046,0.29687 -4.63281,2.15234 -4.22265,4.125 0.40625,1.97656 0.30469,4.0664 -0.22266,4.64844 -0.53515,0.58203 -0.54687,2.78906 -0.0391,4.90234 0.51172,2.11719 3.07031,3.16016 5.6875,2.32422 l 7.05078,-2.25781 c 2.61719,-0.83594 3.62109,-3.46485 2.23047,-5.83594 l -2.46484,-4.19531 c -1.28125,-2.1875 -4.25782,-3.80079 -6.85938,-3.80079 -0.21484,0 -0.42578,0.0117 -0.63281,0.0312" id="path870"></path>
    </clipPath>
    <clipPath id="clip-2">
      <path clip-rule="nonzero" d="m 617,395 h 21 v 23 h -21 z m 0,0" id="path1178"></path>
    </clipPath>
    <clipPath id="clip-3">
      <path clip-rule="nonzero" d="m 628.69922,395.76172 c -2.77735,0.35937 -6.35547,2.07031 -7.95313,3.80469 -1.59765,1.73437 -2.90234,6.28125 -2.90234,10.10546 0,3.82422 2.71094,7.26172 6.02344,7.63672 l 3.21093,0.36719 c 3.31641,0.37891 7.23829,-2.11719 8.72266,-5.54297 l 0.62891,-1.45312 c 1.48047,-3.42188 1.48437,-8.32813 0.008,-10.89844 -1.35156,-2.35156 -4.38281,-4.0625 -7.01563,-4.0625 -0.24609,0 -0.48437,0.0117 -0.72265,0.043" id="path1181"></path>
    </clipPath>
  </defs>
  <g id="layer1" transform="translate(-8.8519871,-66.709671)">
    <g id="g1998" transform="matrix(0.35277778,0,0,0.35277778,-34.502472,37.093013)">
      <path fill="none" stroke-width="3" stroke-linecap="butt" stroke-linejoin="miter" stroke="#1a171b" stroke-opacity="1" stroke-miterlimit="10" d="M -5.375e-4,9.75e-4 V 65.817381 C 23.901806,79.844725 47.808056,93.868163 71.7104,107.89551 95.393994,94.5166 119.07759,81.1416 142.76118,67.762694 V 6.563475" transform="matrix(1,0,0,-1,220.7896,193.5791)" id="path1491" style="stroke:#ffffff"></path>
      <path fill="none" stroke-width="3" stroke-linecap="butt" stroke-linejoin="miter" stroke="#1a171b" stroke-opacity="1" stroke-miterlimit="10" d="m -5.3125e-4,9.5e-4 c -0.14062475,1.691406 0,68.894531 0,68.894531 H 44.61275 V 38.540012 L 74.401813,52.6572 v 76.09766 l 30.070317,15.38671" transform="matrix(1,0,0,-1,140.106,419.2822)" id="path1493" style="stroke:#ffffff"></path>
      <path fill="none" stroke-width="3" stroke-linecap="butt" stroke-linejoin="miter" stroke="#1a171b" stroke-opacity="1" stroke-miterlimit="10" d="M -0.0019125,-9.625e-4 V 66.635756 H 47.154338 V 36.139663 L 136.37699,53.647475 V 22.870131 l 28.80078,-15.8125 v -97.976562" transform="matrix(1,0,0,-1,491.4941,292.7881)" id="path1495" style="stroke:#ffffff"></path>
      <path fill-rule="nonzero" fill="#f7d593" fill-opacity="1" d="m 299.12891,393.04297 c 0,0 1.76171,-19.95703 0,-21.91016 -1.46094,-1.6289 -41.28125,-2.30859 -45,0.58594 -5.28125,4.10547 -3.51954,20.73828 -1.95704,21.12891 1.56641,0.39062 46.95704,0.19531 46.95704,0.19531" id="path1497" style="stroke:#ffffff"></path>
      <path fill-rule="nonzero" fill="#f7d593" fill-opacity="1" stroke-width="1" stroke-linecap="butt" stroke-linejoin="miter" stroke="#1a171b" stroke-opacity="1" stroke-miterlimit="10" d="m 0.00101875,0.00101875 c 0,0 7.04296925,15.65234425 -3.71874975,20.54296925 -10.761719,4.890625 -21.71875,2.738281 -25.238281,-1.371094 -2.121094,-2.472656 -1.175782,-19.17187525 -1.175782,-19.17187525 z m 0,0" transform="matrix(1,0,0,-1,338.2607,393.2393)" id="path1501" style="stroke:#ffffff"></path>
      <path fill-rule="nonzero" fill="#f7d593" fill-opacity="1" d="M 196.60937,282.98828 172.75,282.19141 c -3.21094,-0.10938 -4.87109,1.47656 -3.6875,3.52734 1.18359,2.04687 4.57422,4.73828 7.54297,5.98047 l 13.47656,5.64453 c 2.96484,1.24219 7.61719,-0.0508 8.875,-3.00781 l 1.85938,-6.0625 c 1.25781,-2.96485 -0.99219,-5.17578 -4.20704,-5.28516" id="path1503" style="stroke:#ffffff"></path>
      <path fill-rule="nonzero" fill="#f7d593" fill-opacity="1" d="m 184.72266,412.60937 h -26.70704 c -0.94531,0 -1.71093,-0.76953 -1.71093,-1.71484 v -16.14062 c 0,-0.94532 0.76562,-1.71094 1.71093,-1.71094 h 26.70704 c 0.94531,0 1.71093,0.76562 1.71093,1.71094 v 16.14062 c 0,0.94531 -0.76562,1.71484 -1.71093,1.71484" id="path1507" style="stroke:#ffffff"></path>
      <path fill-rule="nonzero" fill="#f7d593" fill-opacity="1" d="m 204.32422,393.75391 25.13672,-0.53516 c 1.21093,-0.0273 2.22656,-0.92969 2.39453,-2.12891 l 1.04687,-7.50781 c 0.0625,-0.44531 -0.14453,-0.87891 -0.53515,-1.10156 -1.34375,-0.77344 -4.75782,-2.44141 -9.53907,-2.74219 -6.26171,-0.39062 -13.30468,0.78516 -15.65234,3.52344 -1.39062,1.61719 -3.32422,5.01172 -4.67187,7.51953 -0.73438,1.35937 0.26953,3.00391 1.82031,2.97266" id="path1511" style="stroke:#ffffff"></path>
      <path fill-rule="nonzero" fill="#f7d593" fill-opacity="1" d="m 166.57812,301.18359 c 5.96485,-2.57031 25.98829,0.16407 25.98829,0.16407 0,0 8.34765,2.60937 5.73828,11.48046 -2.60938,8.86719 -6.52344,8.86719 -6.52344,8.86719 l -13.5625,0.26172 c 0,0 -11.12109,-0.75 -13.20703,-7.27344 -2.08594,-6.51953 -3.35156,-11.38281 1.5664,-13.5" id="path1515" style="stroke:#ffffff"></path>
      <path fill-rule="nonzero" fill="#f7d593" fill-opacity="1" d="m 153.17187,327.56641 c -0.25781,4.17187 -1.30078,11.21484 0.52344,11.73828 1.82813,0.52343 27.65235,-0.26172 28.95703,0.52343 1.30469,0.78125 3.78125,2.34375 5.08594,2.34375 1.30469,0 6.39063,1.95704 7.43359,0.52344 0.78516,-1.07422 0.41797,-3.61328 1.82813,-6 1.69531,-2.86719 2.60937,-6.26172 0.52344,-7.82422 -2.08985,-1.5664 -9.39453,-3.39453 -13.30469,-3.39453 -3.91406,0 -31.04688,2.08985 -31.04688,2.08985" id="path1519" style="stroke:#ffffff"></path>
      <path fill-rule="nonzero" fill="#f7d593" fill-opacity="1" stroke-width="1" stroke-linecap="butt" stroke-linejoin="miter" stroke="#1a171b" stroke-opacity="1" stroke-miterlimit="10" d="M -0.00145,-1.25e-5 0.131363,-15.000013 c 0,0 4.378906,-0.07422 7.875,1.90625 3.617187,2.054688 6.75,5.332032 6.75,8.070313 0,2.742187 -0.148438,4.5 -0.148438,4.5 z m 0,0" transform="matrix(1,0,0,-1,353.7827,384.6953)" id="path1523" style="stroke:#ffffff"></path>
      <path fill-rule="nonzero" fill="#f7d593" fill-opacity="1" stroke-width="1" stroke-linecap="butt" stroke-linejoin="miter" stroke="#1a171b" stroke-opacity="1" stroke-miterlimit="10" d="M 0.00100625,-9.875e-4 C 0.129912,3.307606 -2.237275,7.1162 -5.260713,8.45995 l -9.921875,4.421875 c -3.023437,1.347656 -7.117187,0.277344 -9.097656,-2.375 L -35.428681,-4.426769 c -1.976563,-2.652344 -3.21875,-5.695312 -2.753907,-6.765625 0.464844,-1.066406 3.558594,-1.902344 6.867188,-1.855469 l 24.800781,0.347657 c 3.3125,0.04687 6.125,2.792968 6.253906,6.097656 z m 0,0" transform="matrix(1,0,0,-1,408.7529,398.6162)" id="path1525" style="stroke:#ffffff"></path>
      <path fill-rule="nonzero" fill="#f7d593" fill-opacity="1" stroke-width="1" stroke-linecap="butt" stroke-linejoin="miter" stroke="#1a171b" stroke-opacity="1" stroke-miterlimit="10" d="M 1.25e-5,0.0010125 C -1.906237,1.563513 -5.343737,2.196325 -7.644519,1.411169 -9.941394,0.626013 -10.871081,-1.8193 -9.710925,-4.022425 l 6.488281,-12.277344 c 1.164063,-2.203125 1.796875,-5.5 1.402344,-7.324218 -0.394531,-1.824219 1.230469,-3.886719 3.605469,-4.578125 l 9.097656,-2.652344 c 2.375,-0.691406 4.25,0.820312 4.175781,3.367187 l -0.335937,10.894532 c -0.07813,2.542968 -1.703125,5.90625 -3.609375,7.46875 z m 0,0" transform="matrix(1,0,0,-1,417.6953,377.1182)" id="path1527" style="stroke:#ffffff"></path>
      <path fill-rule="nonzero" fill="#f7d593" fill-opacity="1" stroke-width="1" stroke-linecap="butt" stroke-linejoin="miter" stroke="#1a171b" stroke-opacity="1" stroke-miterlimit="10" d="M -9.4375e-4,-0.00193125 C 0.909213,-3.287088 0.346713,-6.373025 -1.25485,-6.849588 c -1.601562,-0.480468 -3.71875,-2.761718 -4.703125,-5.074218 -0.984375,-2.308594 1.429688,-4.378907 5.363281,-4.601563 l 18.625,-1.046875 c 3.929688,-0.222656 7.148438,2.363281 7.148438,5.742188 V 2.709006 c 0,3.382813 -3.125,6.828125 -6.945313,7.664063 0,0 -21.28125,4.644531 -22.398437,4.644531 z m 0,0" transform="matrix(1,0,0,-1,441.2861,383.0176)" id="path1529" style="stroke:#ffffff"></path>
      <path fill-rule="nonzero" fill="#f7d593" fill-opacity="1" d="m 592.02344,290.23047 v -3.625 c 0,-4.11328 -3.35547,-7.75391 -7.45313,-8.08985 l -20.55469,-1.69531 c -4.09375,-0.33594 -8,2.70703 -8.67187,6.76563 l -1.11719,7.37109 c -0.67187,4.05469 2.14453,8 6.25391,8 h 24.0625 c 4.11328,-0.004 7.48047,-4.61328 7.48047,-8.72656" id="path1531" style="stroke:#fffefe;stroke-opacity:1"></path>
      <path fill-rule="nonzero" fill="#f7d593" fill-opacity="1" d="m 583.87109,403.13672 28.85157,-3.54297 c 3.26953,-0.40234 3.96093,-1.76953 1.53906,-3.04297 l -9.73438,-5.10547 c -2.42578,-1.27344 -7,-1.67187 -10.16406,-0.88281 l -5.125,1.26953 c -3.16406,0.78906 -6.65234,3.14844 -7.75,5.24609 l -1.55859,2.97657 c -1.10938,2.09765 0.67187,3.48437 3.9414,3.08203" id="path1535" style="stroke:#ffffff"></path>
      <g clip-path="url(#clip-0)" id="g1543" style="fill:#f7d593;fill-opacity:1;stroke:#ffffff">
        <g clip-path="url(#clip-1)" id="g1541" style="fill:#f7d593;fill-opacity:1;stroke:#ffffff">
          <path fill-rule="nonzero" fill="url(#radial-pattern-0)" d="m 645.46094,396.76562 v 16.92579 h 16.86718 v -16.92579 z m 0,0" id="path1539" style="fill:#f7d593;fill-opacity:1;stroke:#ffffff"></path>
        </g>
      </g>
      <path fill="none" stroke-width="1" stroke-linecap="butt" stroke-linejoin="miter" stroke="#1a171b" stroke-opacity="1" stroke-miterlimit="10" d="m -0.00195,9.5e-4 c 0.511719,-2.117188 3.070312,-3.160156 5.6875,-2.324219 l 7.050781,2.2578127 C 15.353519,0.770481 16.357425,3.399387 14.9668,5.770481 l -2.460938,4.195313 c -1.394531,2.371093 -4.765625,4.0625 -7.496093,3.769531 L 4.482425,13.676731 C 1.751956,13.379856 -0.150388,11.524387 0.259769,9.551731 0.666019,7.575169 0.564456,5.485325 0.0371125,4.903294 -0.498044,4.321262 -0.513669,2.114231 -0.00195,9.5e-4 Z m 0,0" transform="matrix(1,0,0,-1,645.9707,410.5322)" id="path1545" style="stroke:#ffffff"></path>
      <g clip-path="url(#clip-2)" id="g1551" style="stroke:#ffffff">
        <g clip-path="url(#clip-3)" id="g1549" style="fill:#f7d593;fill-opacity:1;stroke:#ffffff">
          <path fill-rule="nonzero" fill="url(#radial-pattern-1)" d="m 617.84375,395.71875 v 22.33594 h 20.07031 v -22.33594 z m 0,0" id="path1547" style="fill:#f7d593;fill-opacity:1;stroke:#ffffff"></path>
        </g>
      </g>
      <path fill="none" stroke-width="1" stroke-linecap="butt" stroke-linejoin="miter" stroke="#1a171b" stroke-opacity="1" stroke-miterlimit="10" d="M -0.0010125,6.25e-6 3.213831,-0.363275 c 3.3125,-0.378906 7.234375,2.113281 8.71875,5.539062 l 0.628907,1.453125 c 1.484375,3.425782 1.484375,8.328125 0.0078,10.898438 -1.476562,2.570312 -4.960937,4.375 -7.738281,4.019531 C 2.053675,21.187506 -1.52445,19.476569 -3.122106,17.742194 -4.719762,16.007819 -6.02445,11.460944 -6.02445,7.636725 c 0,-3.824219 2.710938,-7.261719 6.0234375,-7.63671875 z m 0,0" transform="matrix(1,0,0,-1,623.8682,417.3086)" id="path1553" style="stroke:#ffffff"></path>
      <path fill-rule="nonzero" fill="#f7d593" fill-opacity="1" d="m 535.42578,290.76562 -0.23047,4.53125 c -0.19531,3.75 1.26563,7.35547 3.2461,8.01172 1.97265,0.65235 5.07031,0.17969 6.87109,-1.05078 1.80469,-1.23437 2.55078,-5.03906 1.65625,-8.45703 l -3.55078,-13.61328 c -0.89063,-3.42188 -2.97266,-3.97266 -4.62891,-1.23047 -1.65625,2.74219 -3.16797,8.05859 -3.36328,11.80859" id="path1555" style="stroke:#ffffff"></path>
      <path fill="none" stroke-width="1" stroke-linecap="butt" stroke-linejoin="miter" stroke="#1a171b" stroke-opacity="1" stroke-miterlimit="10" d="M -0.00191875,0.001475 -0.232387,-4.529775 c -0.195313,-3.75 1.265625,-7.355469 3.246093,-8.011719 1.972657,-0.652343 5.070313,-0.179687 6.871094,1.050782 1.804688,1.234375 2.550781,5.039062 1.65625,8.457031 L 7.990269,10.5796 C 7.099644,14.001475 5.017613,14.552256 3.361363,11.810069 1.705113,9.067881 0.193394,3.751475 -0.00191875,0.001475 Z m 0,0" transform="matrix(1,0,0,-1,535.4277,290.7671)" id="path1557" style="stroke:#ffffff"></path>
      <path fill-rule="nonzero" fill="#f7d593" fill-opacity="1" stroke-width="1" stroke-linecap="butt" stroke-linejoin="miter" stroke="#1a171b" stroke-opacity="1" stroke-miterlimit="10" d="M -3.125e-5,4.375e-5 C 2.859344,0.679731 4.167937,0.636762 5.1445,0.636762 c 1.667969,-0.097656 3.449219,-1.042968 5.460937,-1.777343 2.011719,-0.734375 3.8125,1.0624997 4.003907,4 l 0.914062,13.890625 c 0.191406,2.933593 -2.058594,5.332031 -5,5.332031 H -2.128938 c -2.941406,0 -5.941406,-2.328125 -6.667968,-5.179688 0,0 0.515625,-16.214843 0.515625,-17.050781 z m 0,0" transform="matrix(1,0,0,-1,512.4805,306.4102)" id="path1559" style="stroke:#ffffff"></path>
      <path fill-rule="nonzero" fill="#f7d593" fill-opacity="1" d="m 595.86719,282.96875 v 14.88281 c 0,1.5 1.20312,2.71485 2.68359,2.71485 h 24.375 c 2.15234,0 3.42578,-2.44141 2.21484,-4.24219 l -9.875,-14.64844 c -0.48828,-0.72656 -1.29687,-1.16797 -2.16796,-1.18359 l -14.50391,-0.23828 c -1.49609,-0.0234 -2.72656,1.19921 -2.72656,2.71484" id="path1561" style="stroke:#ffffff;stroke-width:1.00063;stroke-dasharray:none;stroke-opacity:1"></path>
      <path fill="none" stroke-width="1" stroke-linecap="butt" stroke-linejoin="miter" stroke="#1a171b" stroke-opacity="1" stroke-miterlimit="10" d="m -0.0019125,-0.00145 v -14.882812 c 0,-1.5 1.2031255,-2.714844 2.6835935,-2.714844 h 24.375 c 2.152344,0 3.425782,2.441406 2.214844,4.242187 l -9.875,14.648438 C 18.908244,2.018081 18.09965,2.459488 17.228556,2.475113 L 2.72465,2.713394 C 1.228556,2.736831 -0.0019125,1.514175 -0.0019125,-0.00145 Z m 0,0" transform="matrix(1,0,0,-1,595.8691,282.9673)" id="path1563" style="fill:#f7d593;fill-opacity:1;stroke:#ffffff;stroke-opacity:1"></path>
      <path fill-rule="nonzero" fill="#f7d593" fill-opacity="1" d="m 471.50781,313.71875 c 2.0625,-2.02344 6.60156,-4.13672 10.08985,-4.69141 3.48437,-0.5625 4.45703,-4.14843 2.14843,-7.97265 l -1.70703,-2.83594 c -2.30859,-3.82422 -6.46094,-7.30078 -9.23828,-7.71875 -2.77344,-0.41797 -5.03906,2.89453 -5.03906,7.35937 v 11.41797 c 0,4.46485 1.68359,6.46485 3.74609,4.44141" id="path1565" style="stroke:#ffffff"></path>
      <path fill="none" stroke-width="1" stroke-linecap="butt" stroke-linejoin="miter" stroke="#1a171b" stroke-opacity="1" stroke-miterlimit="10" d="M 0.0010125,5e-5 C 2.063513,2.023488 6.602575,4.136769 10.090856,4.691456 c 3.484375,0.5625 4.457032,4.148438 2.148438,7.972657 L 10.532263,15.50005 C 8.223669,19.324269 4.071325,22.800831 1.293981,23.2188 -1.479456,23.636769 -3.745081,20.324269 -3.745081,15.859425 V 4.441456 c 0,-4.4648435 1.683594,-6.464843 3.7460935,-4.441406 z m 0,0" transform="matrix(1,0,0,-1,471.5068,313.7188)" id="path1567" style="stroke:#ffffff"></path>
      <path fill-rule="nonzero" fill="#f7d593" fill-opacity="1" d="m 413.77344,195.35156 c -0.63282,3.64453 -8.16016,12.33985 -8.16016,12.33985 0,0 -3.83984,3.16796 -7.25781,-0.83594 -3.41406,-4 -2.19922,-5.86719 -2.19922,-5.86719 l 4.09375,-6.54687 c 0,0 3.81641,-5.06641 7.57422,-4.03516 3.75781,1.03516 6.46875,1.94531 5.94922,4.94531" id="path1569"></path>
      <path fill="none" stroke-width="1" stroke-linecap="butt" stroke-linejoin="miter" stroke="#1a171b" stroke-opacity="1" stroke-miterlimit="10" d="M 0.0019375,5.375e-4 C -0.630875,-3.643994 -8.158219,-12.339306 -8.158219,-12.339306 c 0,0 -3.839843,-3.167969 -7.257812,0.835937 -3.414063,4 -2.199219,5.867188 -2.199219,5.867188 l 4.09375,6.546875 c 0,0 3.816406,5.066406 7.574219,4.035156 3.757812,-1.035156 6.46875,-1.945313 5.9492185,-4.9453125 z m 0,0" transform="matrix(1,0,0,-1,413.7715,195.3521)" id="path1571" style="stroke:#ffffff"></path>
      <path fill-rule="nonzero" fill="#f7d593" fill-opacity="1" stroke-width="1" stroke-linecap="butt" stroke-linejoin="miter" stroke="#1a171b" stroke-opacity="1" stroke-miterlimit="10" d="m -9.9375e-4,0.00149375 c 0,0 17.22265575,-4.82031275 22.60546875,2.54296825 5.382812,7.363282 3.011719,14.859375 -1.507813,17.265625 -2.71875,1.453125 -21.09765575,0.804688 -21.09765575,0.804688 z m 0,0" transform="matrix(1,0,0,-1,374.2549,196.7554)" id="path1573" style="stroke:#ffffff"></path>
      <path fill-rule="nonzero" fill="#f7d593" fill-opacity="1" stroke-width="1" stroke-linecap="butt" stroke-linejoin="miter" stroke="#1a171b" stroke-opacity="1" stroke-miterlimit="10" d="M -0.001925,-4.375e-5 C -1.685519,0.0273 -4.533175,-2.621138 -4.533175,-4.324263 V -21.0977 c 0,-1.683594 1.347656,-3.054688 3.015625,-3.054688 h 27.460938 c 2.425781,0 2.953125,3.964844 1.589843,5.996094 L 20.35745,-3.289106 c -0.515625,0.769531 -9.792969,1.382812 -9.792969,1.382812 z m 0,0" transform="matrix(1,0,0,-1,321.9238,167.6523)" id="path1575" style="stroke:#ffffff"></path>
      <path fill-rule="nonzero" fill="#1a171b" fill-opacity="1" d="m 282.39453,294.03516 v 30.91796 h 6.11719 c 3.29297,0 6.01172,-0.39843 8.15234,-1.19531 2.14063,-0.79687 3.83985,-1.91015 5.09766,-3.33984 1.25781,-1.42578 2.12109,-3.10156 2.59765,-5.03125 0.47266,-1.92578 0.70704,-4.03906 0.70704,-6.33594 0,-5.04297 -1.31641,-8.82422 -3.95313,-11.34375 -2.63672,-2.52344 -6.54687,-3.78125 -11.73828,-3.78125 -3.54297,0 -5.86719,0.0352 -6.98047,0.10938 m 6.67188,69.28125 h -32.4336 v -3.66797 c 1.52344,-0.3711 2.72656,-0.76953 3.61328,-1.19532 0.88672,-0.42578 1.54297,-1.01953 1.97657,-1.78125 0.43359,-0.75781 0.71093,-1.72265 0.83593,-2.89062 0.1211,-1.16797 0.1836,-2.64063 0.1836,-4.42188 v -47.92968 c 0,-1.74219 -0.0508,-3.20703 -0.15235,-4.39063 -0.10547,-1.1875 -0.37109,-2.14844 -0.80468,-2.89453 -0.4336,-0.73828 -1.08985,-1.33984 -1.97657,-1.80469 -0.88672,-0.46484 -2.10937,-0.8789 -3.67578,-1.25 v -3.67187 h 36.01563 c 4.85937,0 8.99218,0.30469 12.38672,0.91797 3.39843,0.61328 6.375,1.54687 8.92968,2.80859 2.14063,1.03906 3.95313,2.34375 5.4375,3.91797 1.48047,1.57812 2.625,3.41406 3.42578,5.50781 0.80469,2.09375 1.20704,4.53125 1.20704,7.3125 0,3.63281 -0.71094,6.7461 -2.13282,9.33985 -1.42187,2.59375 -3.33593,4.7539 -5.74609,6.47656 -2.41016,1.72656 -5.63281,3.34765 -9.66797,4.86719 v 0.55468 c 3.04688,1.1875 5.57031,2.76953 7.56641,4.75391 2,1.98437 3.80078,4.49609 5.40625,7.53516 l 3.89453,7.5625 c 1.73047,3.375 3.44922,5.90234 5.15625,7.58984 1.71094,1.6875 3.73828,2.71484 6.08594,3.08594 v 3.66797 H 310.8125 c -2.38672,-2.96485 -5.08594,-7.375 -8.09375,-13.23047 l -4.81641,-9.51172 c -1.44531,-2.81641 -2.67968,-4.81641 -3.70703,-6.00391 -1.03125,-1.18359 -2.09375,-2.0039 -3.18359,-2.44531 -1.08985,-0.44531 -2.76953,-0.66797 -5.03516,-0.66797 h -3.58203 v 17.90234 c 0,2.78125 0.14453,4.72657 0.43359,5.83985 0.28516,1.11328 0.84375,2.0039 1.66797,2.66797 0.82422,0.66797 2.34766,1.26172 4.57032,1.78125 z m 0,0" id="path1577" style="fill:#ffffff"></path>
      <path fill-rule="nonzero" fill="#1a171b" fill-opacity="1" d="m 396.82422,317.80859 c 0,-2.77734 -0.13281,-4.71484 -0.40235,-5.80859 -0.26953,-1.09375 -0.79296,-1.97266 -1.57421,-2.64063 -0.78516,-0.66796 -2.3086,-1.28125 -4.57422,-1.83593 v -3.67188 h 27.18359 v 3.67188 c -1.48047,0.37109 -2.65625,0.76953 -3.51953,1.19531 -0.86719,0.42578 -1.52734,1.01953 -1.97656,1.77734 -0.45703,0.76172 -0.74219,1.72657 -0.86719,2.89453 -0.125,1.16407 -0.18359,2.64063 -0.18359,4.41797 v 34.75391 c 0,4.59766 -0.41407,8.44141 -1.23829,11.53516 -0.82031,3.09765 -2.09765,5.69921 -3.82812,7.8164 -1.73047,2.10938 -3.88281,3.81641 -6.45703,5.11328 -2.57422,1.29688 -5.46875,2.22266 -8.67969,2.78125 -3.21094,0.55469 -6.81641,0.83203 -10.8125,0.83203 -5.84766,0 -10.78906,-0.54687 -14.82422,-1.64062 -4.03906,-1.08984 -7.32422,-2.74219 -9.85547,-4.94922 -2.53125,-2.20312 -4.40625,-4.88281 -5.62109,-8.03125 -1.21484,-3.15234 -1.82422,-7.21094 -1.82422,-12.17969 v -35.97265 c 0,-1.7461 -0.0508,-3.20703 -0.15234,-4.39453 -0.10547,-1.1836 -0.3711,-2.14844 -0.80469,-2.89063 -0.43359,-0.74219 -1.09375,-1.34375 -1.97656,-1.80859 -0.88672,-0.46094 -2.10938,-0.87891 -3.67578,-1.25 v -3.67188 h 32.43359 v 3.67188 c -1.6875,0.40625 -2.93359,0.84375 -3.73828,1.30859 -0.80078,0.46094 -1.41016,1.02734 -1.82031,1.69531 -0.41407,0.66797 -0.70313,1.53907 -0.86719,2.61328 -0.16406,1.07422 -0.2461,2.64844 -0.2461,4.72657 v 36.69531 c 0,2.92969 0.20704,5.59766 0.61719,8.00781 0.41016,2.41016 1.16406,4.47656 2.25391,6.19922 1.09375,1.72656 2.60547,3.05078 4.54297,3.97656 1.93359,0.92578 4.42578,1.39063 7.47656,1.39063 4.19922,0 7.32812,-0.76172 9.39062,-2.28125 2.0586,-1.51953 3.50782,-3.64063 4.35547,-6.36719 0.84375,-2.72266 1.26563,-6.78906 1.26563,-12.20312 z m 0,0" id="path1579" style="fill:#ffffff"></path>
      <path fill-rule="nonzero" fill="#1a171b" fill-opacity="1" d="m 454.06641,349.35937 c 0,1.30079 0.0391,2.50391 0.12109,3.61719 0.082,1.10938 0.24609,2.01953 0.49219,2.72266 0.25,0.70703 0.60937,1.30078 1.08203,1.78125 0.47656,0.48047 1.12109,0.89844 1.94922,1.25 0.82031,0.35156 1.83203,0.65625 3.02734,0.91797 v 3.66797 h -32.4375 v -3.66797 c 1.52344,-0.3711 2.73047,-0.76953 3.61719,-1.19532 0.88281,-0.42578 1.54297,-1.01953 1.97265,-1.78125 0.4336,-0.75781 0.71094,-1.72265 0.83594,-2.89062 0.125,-1.16797 0.1875,-2.64063 0.1875,-4.42188 V 301.375 c 0,-1.78125 -0.0547,-3.24219 -0.15625,-4.39453 -0.10156,-1.14453 -0.37109,-2.10156 -0.80078,-2.86328 -0.43359,-0.75782 -1.09375,-1.35938 -1.98047,-1.80469 -0.88672,-0.44531 -2.10937,-0.85156 -3.67578,-1.22266 v -3.67187 h 32.4375 v 3.67187 c -1.69141,0.40625 -2.9375,0.84375 -3.73828,1.30469 -0.80469,0.46484 -1.41406,1.02734 -1.82422,1.69531 -0.41406,0.66797 -0.69922,1.53907 -0.86328,2.61328 -0.16406,1.07813 -0.24609,2.65235 -0.24609,4.72657 z m 0,0" id="path1581" style="fill:#ffffff"></path>
      <path fill-rule="nonzero" fill="#1a171b" fill-opacity="1" d="m 551.99609,320.25391 v 3.66796 c -1.64453,0.48438 -2.80859,0.89063 -3.48828,1.22657 -0.67969,0.33203 -1.25781,0.77734 -1.73047,1.33203 -0.47265,0.55469 -0.83593,1.40234 -1.08203,2.53125 -0.24609,1.1289 -0.37109,2.86328 -0.37109,5.19922 v 61.9414 h -15.69141 l -27.80078,-43.25781 c -3.74609,-5.85937 -6.50781,-10.45312 -8.27734,-13.79297 H 493 c 0.41016,7.97266 0.61328,16.38672 0.61328,25.2461 V 382.25 c 0,2.78125 0.15625,4.72656 0.46484,5.83984 0.3086,1.11328 0.86329,1.99219 1.66797,2.64063 0.80469,0.64844 2.31641,1.23437 4.54297,1.75 v 3.67187 h -23.35547 v -3.67187 c 1.52344,-0.36719 2.73047,-0.77735 3.61719,-1.22266 0.88281,-0.4414 1.54297,-1.04687 1.97656,-1.80469 0.42969,-0.76171 0.70703,-1.71484 0.83203,-2.86328 0.125,-1.14843 0.1875,-2.59765 0.1875,-4.33984 v -48.09766 c 0,-2.77734 -0.13671,-4.69531 -0.40234,-5.7539 -0.26953,-1.05469 -0.82422,-1.9336 -1.66797,-2.64063 -0.84375,-0.70312 -2.35937,-1.3164 -4.54297,-1.83594 v -3.66796 h 25.02344 l 21.86719,34.19531 c 1.35937,2.15234 3.13281,5.0625 5.3164,8.73047 2.17969,3.67187 4.11719,7.13672 5.80469,10.39843 h 0.98828 c -0.45312,-8.85937 -0.67968,-18.53515 -0.67968,-29.02343 v -10.34375 c 0,-2.41016 -0.10157,-4.15235 -0.3086,-5.22657 -0.20703,-1.07812 -0.52344,-1.89062 -0.95703,-2.44921 -0.43359,-0.55469 -1.01172,-1.01563 -1.73047,-1.38672 -0.72265,-0.3711 -1.92578,-0.78125 -3.61328,-1.22657 v -3.66796 z m 0,0" id="path1583" style="fill:#ffffff"></path>
      <path fill-rule="nonzero" fill="#1a171b" fill-opacity="1" d="m 628.26562,310.11328 v 17.68359 h -8.46484 c -1.35547,-3.52343 -2.51172,-5.90234 -3.45703,-7.14453 -0.94922,-1.24218 -2.08203,-2.22656 -3.39844,-2.94922 -1.32031,-0.72265 -3.5625,-1.08203 -6.73437,-1.08203 h -13.46485 v 26.6875 h 8.15235 c 1.8125,0 3.23437,-0.23047 4.26172,-0.69531 1.03125,-0.46094 1.88671,-1.23047 2.5664,-2.30859 0.67969,-1.07422 1.32813,-2.74219 1.94531,-5.00391 h 6.98047 v 22.57813 h -6.98047 c -0.57812,-2.15235 -1.21484,-3.78907 -1.91796,-4.92188 -0.69922,-1.12891 -1.53125,-1.9375 -2.5,-2.41797 -0.96875,-0.48437 -2.42188,-0.72656 -4.35547,-0.72656 h -8.15235 v 29.69531 h 13.40625 c 1.4375,0 2.65235,-0.082 3.64063,-0.25 0.99219,-0.16797 1.875,-0.45312 2.66015,-0.86328 0.78125,-0.40625 1.53125,-0.96484 2.25391,-1.66797 0.71875,-0.70312 1.35938,-1.46484 1.91406,-2.27734 0.55469,-0.81641 1.14453,-1.89453 1.76172,-3.22656 0.61719,-1.33594 1.29688,-3.17188 2.03906,-5.50391 h 8.46094 l -1.17187,20.29297 h -60.73047 v -3.66797 c 1.52344,-0.37109 2.73047,-0.76953 3.61328,-1.19531 0.88672,-0.42578 1.54687,-1.01953 1.98047,-1.78125 0.42969,-0.75782 0.71094,-1.72266 0.83203,-2.89063 0.125,-1.16797 0.18359,-2.64062 0.18359,-4.42187 V 324.125 c 0,-1.74219 -0.0508,-3.20313 -0.15234,-4.39063 -0.10547,-1.1875 -0.37109,-2.14843 -0.80469,-2.89062 -0.42969,-0.74219 -1.08984,-1.34375 -1.97656,-1.80859 -0.88281,-0.46094 -2.10938,-0.87891 -3.67578,-1.25 v -3.67188 z m 0,0" id="path1585" style="fill:#ffffff"></path>
      <path fill-rule="nonzero" fill="#1a171b" fill-opacity="1" d="m 171.4375,271.51953 c 2.33984,0.11719 5.03906,0.17578 8.09375,0.17578 3.76953,0 6.875,-0.46094 9.3125,-1.38281 2.44141,-0.91797 4.33594,-2.52734 5.68359,-4.82031 1.35157,-2.29297 2.02344,-5.44141 2.02344,-9.44141 0,-2.82031 -0.35547,-5.24219 -1.07031,-7.26172 -0.71485,-2.01953 -1.78516,-3.64453 -3.21485,-4.8789 -1.42578,-1.23829 -3.13281,-2.13672 -5.11718,-2.70704 -1.98438,-0.57031 -4.46485,-0.85156 -7.4375,-0.85156 h -8.27344 z m 7.91406,-38.05078 c 3.96875,0 7.08203,-0.56641 9.34375,-1.70703 2.26172,-1.13672 3.97656,-2.75391 5.14844,-4.84766 1.17187,-2.09765 1.75781,-4.99219 1.75781,-8.67578 0,-3.25391 -0.63672,-5.83203 -1.90625,-7.73437 -1.26953,-1.90235 -3.07422,-3.26172 -5.41797,-4.08594 -2.33984,-0.82422 -5.25781,-1.23828 -8.74609,-1.23828 -2.77734,0 -5.47656,0.10156 -8.09375,0.29687 v 27.99219 z m 18.51172,3.05859 c 5.55078,1.72657 9.78906,4.22657 12.70703,7.5 2.91406,3.27344 4.3711,7.20313 4.3711,11.78907 0,3.92187 -0.66407,7.33203 -1.99219,10.23437 -1.32813,2.90234 -3.35156,5.28125 -6.07031,7.14453 -2.71875,1.86328 -5.91407,3.22656 -9.58204,4.08594 -3.67187,0.86328 -8.34375,1.29687 -14.01562,1.29687 h -36.66406 v -3.88281 c 1.46875,-0.39062 2.6289,-0.8125 3.48047,-1.26562 0.85546,-0.44922 1.48828,-1.07813 1.90625,-1.88282 0.41796,-0.80078 0.68359,-1.82031 0.80468,-3.05468 0.11719,-1.23828 0.17578,-2.79297 0.17578,-4.67578 v -50.69532 c 0,-1.84375 -0.0508,-3.39062 -0.14843,-4.64453 -0.0977,-1.25781 -0.35547,-2.27344 -0.77344,-3.05859 -0.41797,-0.78516 -1.05078,-1.42188 -1.90625,-1.91406 -0.85156,-0.48829 -2.03125,-0.92969 -3.53906,-1.32032 v -3.88281 h 38.98437 c 4.44141,0 8.07422,0.21484 10.89063,0.64844 3.73047,0.58594 6.96484,1.60547 9.70312,3.05469 2.45703,1.29687 4.38281,3.14062 5.77344,5.53125 1.38672,2.39062 2.08203,5.23437 2.08203,8.52734 0,8.85937 -5.39844,15.50781 -16.1875,19.9375 z m 0,0" id="path1587" style="fill:#ffffff;stroke:none"></path>
      <path fill-rule="nonzero" fill="#1a171b" fill-opacity="1" d="m 284.83984,199.75781 c 0,-2.9414 -0.1289,-4.98828 -0.38672,-6.14453 -0.26171,-1.15625 -0.76562,-2.08984 -1.51953,-2.79297 -0.7539,-0.70703 -2.22265,-1.35547 -4.40234,-1.9414 v -3.88282 h 26.1875 v 3.88282 c -1.42969,0.39062 -2.5625,0.8125 -3.39453,1.26171 -0.83203,0.45313 -1.46875,1.08204 -1.90235,1.88282 -0.4375,0.80468 -0.71484,1.82422 -0.83203,3.05859 -0.12109,1.23438 -0.17968,2.79297 -0.17968,4.67578 v 36.75781 c 0,4.85938 -0.39844,8.92969 -1.19141,12.20313 -0.79297,3.27344 -2.02344,6.02734 -3.69141,8.26172 -1.66406,2.23437 -3.73828,4.03906 -6.21875,5.41015 -2.48047,1.3711 -5.26562,2.35157 -8.36328,2.94141 -3.09375,0.58594 -6.5664,0.88281 -10.41406,0.88281 -5.63281,0 -10.39453,-0.58203 -14.28516,-1.73828 -3.88672,-1.15234 -7.05078,-2.89844 -9.49218,-5.23047 -2.44141,-2.33203 -4.2461,-5.16797 -5.41407,-8.5 -1.17187,-3.33203 -1.75781,-7.625 -1.75781,-12.8789 v -38.05078 c 0,-1.84375 -0.0508,-3.39063 -0.14844,-4.64454 -0.10156,-1.2539 -0.35937,-2.27343 -0.77343,-3.05859 -0.41797,-0.78516 -1.05079,-1.42187 -1.90625,-1.91016 -0.85157,-0.49218 -2.03125,-0.93359 -3.53907,-1.32421 v -3.88282 h 31.2461 v 3.88282 c -1.62891,0.42968 -2.82813,0.89062 -3.60157,1.38281 -0.77343,0.48828 -1.35937,1.08594 -1.7539,1.79297 -0.39844,0.70312 -0.67578,1.625 -0.83594,2.76172 -0.16016,1.14062 -0.23828,2.80468 -0.23828,5 v 38.8164 c 0,3.09766 0.19922,5.91797 0.59766,8.46875 0.39453,2.54688 1.11718,4.73438 2.17187,6.55469 1.05078,1.82422 2.50781,3.22656 4.375,4.20703 1.86328,0.98047 4.26172,1.46875 7.19922,1.46875 4.04687,0 7.0625,-0.80078 9.04687,-2.41016 1.98438,-1.60937 3.38282,-3.85156 4.19532,-6.73437 0.8164,-2.88281 1.22265,-7.18359 1.22265,-12.90625 z m 0,0" id="path1589" style="fill:#ffffff"></path>
      <path fill-rule="nonzero" fill="#1a171b" fill-opacity="1" d="m 346.04297,208.42969 v 32.69922 h 5.89453 c 3.17187,0 5.79297,-0.42188 7.85547,-1.26563 2.0625,-0.84375 3.69922,-2.01953 4.91015,-3.52734 1.21094,-1.51172 2.04297,-3.28516 2.5,-5.32422 0.45704,-2.03516 0.6836,-4.27344 0.6836,-6.70313 0,-5.33203 -1.26953,-9.33203 -3.8086,-11.99609 -2.53906,-2.66797 -6.30859,-4 -11.30859,-4 -3.41406,0 -5.65234,0.0391 -6.72656,0.11719 m 6.42969,73.27734 h -31.2461 v -3.88281 c 1.46485,-0.39063 2.625,-0.8125 3.48047,-1.26172 0.85156,-0.45313 1.48828,-1.07813 1.90625,-1.88281 0.41406,-0.80469 0.68359,-1.82422 0.80078,-3.0586 0.1211,-1.23437 0.17969,-2.79297 0.17969,-4.67578 V 216.25 c 0,-1.83984 -0.0508,-3.39063 -0.14844,-4.64453 -0.10156,-1.25391 -0.35937,-2.27344 -0.77344,-3.0586 -0.41796,-0.78125 -1.05078,-1.42187 -1.90625,-1.91015 -0.85156,-0.48828 -2.03515,-0.9336 -3.53906,-1.32422 v -3.88281 h 34.69922 c 4.67969,0 8.66016,0.32422 11.92969,0.97265 3.27344,0.64453 6.14062,1.63672 8.60156,2.96875 2.0625,1.09766 3.80859,2.48047 5.23828,4.14844 1.42969,1.66406 2.53125,3.60547 3.30469,5.82031 0.77344,2.21485 1.16016,4.79297 1.16016,7.73438 0,3.84375 -0.6875,7.13672 -2.05469,9.8789 -1.36719,2.7461 -3.21485,5.02735 -5.53516,6.85157 -2.32031,1.82422 -5.42578,3.53906 -9.3125,5.14453 v 0.58984 c 2.9336,1.25391 5.36328,2.92969 7.28906,5.02735 1.92579,2.09765 3.66016,4.7539 5.20704,7.96875 l 3.75,8 c 1.66796,3.5664 3.32421,6.24218 4.96875,8.02734 1.64843,1.78516 3.60156,2.87109 5.86328,3.26172 v 3.88281 h -22.91407 c -2.30078,-3.13672 -4.90234,-7.80078 -7.79687,-13.99609 l -4.64063,-10.0586 c -1.39062,-2.97656 -2.58203,-5.09375 -3.57031,-6.35156 -0.99609,-1.25391 -2.01562,-2.11719 -3.0664,-2.58594 -1.05079,-0.47265 -2.66797,-0.70703 -4.85157,-0.70703 h -3.45312 v 18.9375 c 0,2.94141 0.14062,5 0.41797,6.17578 0.27734,1.17578 0.8125,2.11719 1.60547,2.82422 0.79687,0.70313 2.26171,1.33203 4.40625,1.87891 z m 0,0" id="path1591" style="fill:#ffffff"></path>
      <path fill-rule="nonzero" fill="#1a171b" fill-opacity="1" d="m 465.60937,199.69531 v 16.69922 h -8.15234 c -0.91406,-3.29297 -1.95703,-5.82812 -3.125,-7.61328 -1.17187,-1.78516 -2.67969,-3.11719 -4.52344,-4 -1.84375,-0.88281 -4.21875,-1.32422 -7.11328,-1.32422 -3.92969,0 -7.39844,1.1875 -10.41406,3.55859 -3.01953,2.3711 -5.39844,6.15625 -7.14453,11.35157 -1.7461,5.19531 -2.61719,11.76953 -2.61719,19.73047 0,6.85937 0.58203,12.8125 1.75391,17.84765 1.17187,5.03906 2.95703,8.94922 5.35547,11.73438 2.40234,2.78515 5.36718,4.17578 8.90234,4.17578 3.48828,0 6.06641,-1.03125 7.73437,-3.08985 1.66797,-2.05859 2.5,-5.33984 2.5,-9.84765 v -2.23828 c 0,-2.97657 -0.0976,-5.10547 -0.29687,-6.37891 -0.19922,-1.27344 -0.50391,-2.22656 -0.92188,-2.85156 -0.41796,-0.62891 -0.96093,-1.13672 -1.63671,-1.53125 -0.67579,-0.39063 -1.86719,-0.83985 -3.57032,-1.35156 v -3.88282 h 30.47266 v 3.88282 c -1.98438,0.58984 -3.33594,1.2539 -4.04688,2 -0.71484,0.74609 -1.20312,1.73437 -1.46093,2.96875 -0.25782,1.23437 -0.38672,2.97265 -0.38672,5.20703 v 22.16797 l -8.57031,1.76562 -4.04688,-4.23437 c -4.72266,2.86328 -10.13672,4.29296 -16.25,4.29296 -11.58594,0 -20.22266,-3.33984 -25.91797,-10.02734 -5.69531,-6.68359 -8.54297,-16.80859 -8.54297,-30.375 0,-7.13281 1.01563,-13.41016 3.03907,-18.82031 2.02343,-5.41016 4.82812,-9.8086 8.42187,-13.20313 3.58984,-3.39062 7.63672,-5.85937 12.14063,-7.41015 4.5039,-1.54688 9.33593,-2.32032 14.49218,-2.32032 8.69141,0 16.66407,1.03907 23.92578,3.11719" id="path1593" style="fill:#ffffff"></path>
      <path fill-rule="nonzero" fill="#1a171b" fill-opacity="1" d="m 138.70312,461.41406 h 13.35938 l -5.9375,-20.89062 z m 14.4336,4.34375 h -15.84375 l -1.22656,3.52344 c -0.34375,0.99219 -0.62891,1.94922 -0.85157,2.87891 -0.22265,0.92578 -0.33593,1.91015 -0.33593,2.94921 0,2.42579 1.28906,3.72266 3.85937,3.89844 v 2.44531 h -15.84375 v -2.44531 c 0.91406,-0.10156 1.71875,-0.42187 2.41016,-0.96875 0.69531,-0.54297 1.32422,-1.28515 1.89453,-2.22656 0.56641,-0.9375 1.17578,-2.28516 1.8164,-4.04297 l 15.47657,-41.23047 h 9.90625 l 12.24609,41.56641 c 0.54297,1.85547 1.00391,3.17187 1.375,3.94922 0.37109,0.78125 0.85156,1.41015 1.44531,1.89453 0.59375,0.48047 1.42188,0.83203 2.48828,1.05859 v 2.44531 h -20.48437 v -2.44531 c 1.28516,-0.15234 2.23828,-0.50781 2.85547,-1.07812 0.61719,-0.57032 0.92969,-1.3711 0.92969,-2.41016 0,-0.76953 -0.0859,-1.62109 -0.26172,-2.5625 -0.17188,-0.9375 -0.45703,-2.12891 -0.85157,-3.5625 z m 0,0" id="path1595" style="fill:#ffffff"></path>
      <path fill-rule="nonzero" fill="#1a171b" fill-opacity="1" d="m 200.83984,421.41016 v 2.44921 c -0.89453,0.2461 -1.59765,0.51172 -2.11718,0.79688 -0.51954,0.28516 -0.92188,0.67578 -1.20704,1.16797 -0.28515,0.49609 -0.46875,1.13281 -0.55468,1.91015 -0.0898,0.78125 -0.13282,1.76563 -0.13282,2.95313 v 36.96094 h 7.19922 c 1.4375,0 2.58594,-0.22266 3.45313,-0.66797 0.86719,-0.44531 1.61328,-1.13281 2.24609,-2.0586 0.62891,-0.92968 1.17578,-2.14062 1.63281,-3.64062 0.45704,-1.49219 0.82032,-2.89844 1.09375,-4.21094 h 5.08204 l -0.8125,14.99219 h -35.36719 v -2.44922 c 0.91406,-0.24609 1.63672,-0.51953 2.17187,-0.81641 0.53125,-0.29687 0.92578,-0.69921 1.1875,-1.20312 0.25782,-0.50781 0.42578,-1.15234 0.5,-1.92969 0.0742,-0.78125 0.10938,-1.76562 0.10938,-2.95312 v -31.94922 c 0,-1.16406 -0.0312,-2.14063 -0.0898,-2.9336 -0.0625,-0.78906 -0.22265,-1.43359 -0.48437,-1.92968 -0.25781,-0.49219 -0.65625,-0.89453 -1.1875,-1.20703 -0.53125,-0.30469 -1.26563,-0.58594 -2.20703,-0.83204 v -2.44921 z m 0,0" id="path1597" style="fill:#ffffff"></path>
      <path fill-rule="nonzero" fill="#1a171b" fill-opacity="1" d="m 220.33203,451.71484 v -2.44922 c 1.03906,-0.17187 1.85938,-0.40234 2.46875,-0.6875 0.60547,-0.28125 1.05469,-0.68359 1.35156,-1.20312 0.29688,-0.51953 0.48438,-1.17969 0.5586,-1.98438 0.0742,-0.80468 0.10937,-1.80078 0.10937,-2.98828 v -37 h -3.0039 c -1.48438,0 -2.6211,0.17578 -3.41407,0.51953 -0.79297,0.34766 -1.47656,0.89063 -2.05859,1.63282 -0.58203,0.74218 -1.08203,1.73828 -1.50391,2.98828 -0.42187,1.25 -0.76562,2.42969 -1.03906,3.54297 h -5.08203 V 401.0625 h 43.67578 v 13.02344 h -5.08203 c -0.47266,-1.67969 -0.84375,-2.91797 -1.11719,-3.71094 -0.26953,-0.78906 -0.57422,-1.46484 -0.90625,-2.01953 -0.33594,-0.5586 -0.6875,-1.02344 -1.05859,-1.39453 -0.3711,-0.3711 -0.76563,-0.66797 -1.1875,-0.89063 -0.42188,-0.22265 -0.94531,-0.38672 -1.57813,-0.5 -0.6289,-0.11328 -1.45312,-0.16797 -2.46875,-0.16797 h -2.67187 v 37 c 0,1.3086 0.0391,2.30469 0.11328,2.98828 0.0742,0.67969 0.21094,1.23047 0.41016,1.64844 0.19531,0.42188 0.4375,0.76172 0.72265,1.02344 0.28125,0.25781 0.67969,0.49219 1.1875,0.70312 0.50781,0.21094 1.19141,0.37891 2.0586,0.5 v 2.44922 z m 0,0" id="path1599" style="fill:#ffffff"></path>
      <path fill-rule="nonzero" fill="#1a171b" fill-opacity="1" d="m 299.13281,420.17187 v 2.44922 c -0.98828,0.32422 -1.6875,0.59375 -2.09765,0.81641 -0.40625,0.22266 -0.75391,0.51953 -1.03907,0.89062 -0.28515,0.3711 -0.5,0.9375 -0.64843,1.69141 -0.14844,0.75391 -0.22266,1.91016 -0.22266,3.46875 v 41.33984 h -9.42578 L 269,441.95703 c -2.25,-3.91016 -3.91016,-6.97656 -4.97266,-9.20312 h -0.33203 c 0.2461,5.3164 0.3711,10.93359 0.3711,16.84765 v 11.94922 c 0,1.85547 0.0898,3.15234 0.27734,3.89453 0.18359,0.74219 0.51953,1.33203 1,1.76172 0.48437,0.4375 1.39453,0.82422 2.72656,1.17188 v 2.44921 h -14.02734 v -2.44921 c 0.91797,-0.2461 1.64062,-0.51954 2.17187,-0.81641 0.53125,-0.29688 0.92969,-0.69922 1.1875,-1.20703 0.26172,-0.50781 0.42578,-1.14453 0.5,-1.91016 0.0781,-0.76562 0.11328,-1.73047 0.11328,-2.89453 v -32.10156 c 0,-1.85547 -0.082,-3.13281 -0.24218,-3.83985 -0.16016,-0.70703 -0.4961,-1.29296 -1,-1.76171 -0.50782,-0.47266 -1.41797,-0.87891 -2.73047,-1.22657 v -2.44922 h 15.03125 l 13.13672,22.82422 c 0.8164,1.4336 1.8789,3.375 3.1914,5.82422 1.3125,2.44922 2.47266,4.76172 3.48828,6.94141 h 0.59375 c -0.27343,-5.91406 -0.41015,-12.3711 -0.41015,-19.3711 v -6.90234 c 0,-1.60937 -0.0586,-2.76953 -0.1836,-3.48828 -0.125,-0.71875 -0.3164,-1.26172 -0.57421,-1.63281 -0.26172,-0.3711 -0.60938,-0.67969 -1.03907,-0.92969 -0.43359,-0.24609 -1.15625,-0.51953 -2.17187,-0.81641 v -2.44922 z m 0,0" id="path1601" style="fill:#ffffff"></path>
      <path fill-rule="nonzero" fill="#1a171b" fill-opacity="1" d="m 343.44922,417.41797 c 0,-1.85156 -0.082,-3.14453 -0.24219,-3.875 -0.16016,-0.73047 -0.47656,-1.31641 -0.94531,-1.76563 -0.46875,-0.44531 -1.38672,-0.85156 -2.7461,-1.22265 v -2.44922 h 16.32813 v 2.44922 c -0.89063,0.25 -1.59375,0.51172 -2.11719,0.79687 -0.51562,0.28516 -0.91406,0.67969 -1.18359,1.1875 -0.27344,0.50781 -0.44922,1.15235 -0.52344,1.92969 -0.0742,0.78125 -0.10937,1.76562 -0.10937,2.94922 v 23.19531 c 0,3.07031 -0.2461,5.63281 -0.74219,7.69922 -0.4961,2.06641 -1.26172,3.80469 -2.30078,5.21484 -1.03907,1.41016 -2.33203,2.54688 -3.87891,3.41407 -1.54687,0.86718 -3.28125,1.48437 -5.21484,1.85546 -1.92969,0.3711 -4.09375,0.5586 -6.49219,0.5586 -3.51563,0 -6.48047,-0.36719 -8.90625,-1.09766 -2.42578,-0.73047 -4.39844,-1.82812 -5.91797,-3.30078 -1.52344,-1.47266 -2.64844,-3.26172 -3.37891,-5.36328 -0.73046,-2.10156 -1.09375,-4.8125 -1.09375,-8.125 v -24.01172 c 0,-1.16406 -0.0312,-2.14062 -0.0937,-2.93359 -0.0625,-0.78907 -0.22265,-1.4336 -0.48046,-1.92578 -0.26172,-0.4961 -0.65625,-0.89844 -1.1875,-1.20704 -0.53516,-0.30859 -1.26954,-0.58593 -2.21094,-0.83593 v -2.44922 h 19.48437 v 2.44922 c -1.01562,0.27343 -1.76172,0.5625 -2.24609,0.87109 -0.48047,0.30859 -0.84766,0.6875 -1.09375,1.13281 -0.25,0.44532 -0.42188,1.02735 -0.51953,1.7461 -0.0977,0.71484 -0.14844,1.76562 -0.14844,3.15234 v 24.49219 c 0,1.95312 0.125,3.73828 0.37109,5.34375 0.2461,1.60937 0.69922,2.98828 1.35547,4.13672 0.65625,1.15234 1.5625,2.03515 2.72657,2.65234 1.16015,0.62109 2.66015,0.92969 4.48828,0.92969 2.52734,0 4.40625,-0.50781 5.64062,-1.52344 1.23828,-1.01172 2.10938,-2.42969 2.61719,-4.24609 0.50781,-1.82032 0.76172,-4.53516 0.76172,-8.14453 z m 0,0" id="path1603" style="fill:#ffffff"></path>
      <path fill-rule="nonzero" fill="#1a171b" fill-opacity="1" d="m 371.85156,459.55859 c 0.61719,2.94141 1.65235,5.14063 3.10156,6.58594 1.44532,1.44531 3.56641,2.17188 6.36329,2.17188 1.45703,0 2.76953,-0.2461 3.93359,-0.74219 1.16016,-0.4961 2.09375,-1.29297 2.80078,-2.39453 0.70313,-1.10157 1.05859,-2.48047 1.05859,-4.13672 0,-1.53516 -0.28515,-2.86328 -0.85546,-3.99219 -0.57032,-1.125 -1.48438,-2.19141 -2.7461,-3.20703 -1.26172,-1.01563 -3.01562,-2.08984 -5.26953,-3.23047 -1.92969,-0.96484 -3.67187,-1.96484 -5.23047,-3.00391 -1.55859,-1.03906 -2.89062,-2.18359 -3.99219,-3.43359 -1.10156,-1.25 -1.95312,-2.61719 -2.55859,-4.10156 -0.60547,-1.48438 -0.91016,-3.15235 -0.91016,-5.00781 0,-3.04297 0.75391,-5.62891 2.26563,-7.75782 1.50781,-2.125 3.69141,-3.73828 6.55078,-4.84375 2.85547,-1.09765 6.16406,-1.64843 9.92578,-1.64843 2.19922,0 4.30469,0.11718 6.3086,0.35156 2.0039,0.23437 4.28906,0.64844 6.86328,1.24219 v 10.76171 h -5.08203 c -0.47266,-1.95312 -1.07032,-3.50781 -1.80079,-4.65625 -0.73046,-1.14843 -1.64062,-1.99609 -2.72656,-2.54296 -1.08984,-0.54297 -2.46484,-0.81641 -4.12109,-0.81641 -1.41016,0 -2.67188,0.25 -3.78516,0.74219 -1.11328,0.49609 -1.99219,1.23047 -2.63281,2.21093 -0.64453,0.97657 -0.96484,2.15625 -0.96484,3.54297 0,1.4336 0.27734,2.67578 0.83203,3.72657 0.55859,1.05468 1.49218,2.07812 2.80468,3.08203 1.3086,1 3.21485,2.14843 5.71485,3.43359 3.04297,1.58203 5.43359,3.13672 7.17969,4.65625 1.74218,1.52344 3.03125,3.17969 3.85937,4.97266 0.82813,1.79297 1.24219,3.8789 1.24219,6.2539 0,3.04297 -0.70313,5.6836 -2.11328,7.92188 -1.41016,2.23828 -3.46485,3.96094 -6.16016,5.16015 -2.69922,1.19922 -5.81641,1.79688 -9.35156,1.79688 -2.52344,0 -5.15235,-0.14063 -7.88672,-0.42578 -2.73438,-0.28516 -5.30078,-0.69922 -7.69922,-1.24219 v -11.42969 z m 0,0" id="path1605" style="fill:#ffffff"></path>
      <path fill-rule="nonzero" fill="#1a171b" fill-opacity="1" d="m 421.39453,451.73047 c 0.61719,2.94531 1.64844,5.14062 3.09766,6.58984 1.44922,1.44531 3.57031,2.16797 6.36328,2.16797 1.46094,0 2.76953,-0.24609 3.93359,-0.74219 1.16406,-0.49218 2.09766,-1.28906 2.80078,-2.39453 0.70703,-1.09765 1.0586,-2.47656 1.0586,-4.13672 0,-1.53125 -0.28516,-2.86328 -0.85157,-3.98828 -0.57031,-1.125 -1.48437,-2.19531 -2.74609,-3.21094 -1.26172,-1.01171 -3.01953,-2.08984 -5.26953,-3.22656 -1.92969,-0.96484 -3.67578,-1.96875 -5.23438,-3.00781 -1.55859,-1.03906 -2.88671,-2.18359 -3.98828,-3.43359 -1.10156,-1.2461 -1.95312,-2.61329 -2.5625,-4.09766 -0.60547,-1.48438 -0.90625,-3.15625 -0.90625,-5.01172 0,-3.04297 0.75391,-5.625 2.26172,-7.75391 1.51172,-2.1289 3.69141,-3.74218 6.55078,-4.84375 2.85547,-1.10156 6.16797,-1.65234 9.92578,-1.65234 2.20313,0 4.30469,0.11719 6.3086,0.35156 2.0039,0.23828 4.29297,0.65235 6.86719,1.2461 v 10.76172 h -5.08594 c -0.46875,-1.95704 -1.07031,-3.50782 -1.79688,-4.66016 -0.73437,-1.14844 -1.64062,-1.99609 -2.73047,-2.53906 -1.08984,-0.54688 -2.46093,-0.81641 -4.11718,-0.81641 -1.41016,0 -2.67188,0.24609 -3.78516,0.74219 -1.11328,0.49609 -1.99219,1.23047 -2.63672,2.20703 -0.64453,0.97656 -0.96484,2.16016 -0.96484,3.54297 0,1.4375 0.27734,2.67969 0.83594,3.73047 0.55859,1.05078 1.48828,2.07812 2.80078,3.07812 1.3125,1.00391 3.21875,2.14844 5.71484,3.4336 3.04297,1.58593 5.4375,3.13671 7.17969,4.65625 1.74609,1.52343 3.03125,3.18359 3.86328,4.97656 0.82812,1.79297 1.24219,3.875 1.24219,6.25 0,3.04297 -0.70703,5.68359 -2.11719,7.92578 -1.41016,2.23828 -3.46094,3.95703 -6.16016,5.15625 -2.69531,1.19922 -5.8125,1.80078 -9.35156,1.80078 -2.52344,0 -5.15234,-0.14453 -7.88672,-0.42578 -2.73047,-0.28516 -5.30078,-0.69922 -7.69922,-1.24609 v -11.42969 z m 0,0" id="path1607" style="fill:#ffffff"></path>
      <path fill-rule="nonzero" fill="#1a171b" fill-opacity="1" d="m 478.64062,452.74219 c 1.45704,0.0742 3.14063,0.10937 5.04688,0.10937 2.34766,0 4.28516,-0.28906 5.80859,-0.87109 1.51953,-0.58203 2.70313,-1.59375 3.54297,-3.04297 0.83985,-1.44922 1.26172,-3.43359 1.26172,-5.95703 0,-1.78125 -0.22266,-3.3086 -0.66797,-4.58203 -0.44531,-1.27344 -1.11328,-2.30078 -2.0039,-3.08203 -0.89063,-0.77735 -1.95704,-1.34766 -3.19141,-1.70704 -1.23828,-0.35546 -2.78125,-0.53515 -4.64063,-0.53515 h -5.15625 z m 4.9375,-24.01172 c 2.47266,0 4.41407,-0.35547 5.82422,-1.07422 1.41016,-0.71875 2.48047,-1.73828 3.21094,-3.0625 0.72656,-1.32422 1.09375,-3.14844 1.09375,-5.47266 0,-2.05468 -0.39453,-3.67968 -1.1875,-4.88281 -0.79297,-1.19531 -1.91797,-2.05859 -3.375,-2.57812 -1.46094,-0.51954 -3.28125,-0.77735 -5.45703,-0.77735 -1.73438,0 -3.41406,0.0625 -5.04688,0.1836 v 17.66406 z m 11.53907,1.92969 c 3.46093,1.08984 6.10547,2.66796 7.92187,4.73046 1.82031,2.07032 2.73047,4.54688 2.73047,7.44141 0,2.47656 -0.41797,4.62891 -1.24609,6.45703 -0.82813,1.83203 -2.08985,3.33594 -3.78516,4.51172 -1.69531,1.17188 -3.6875,2.03516 -5.97266,2.57813 -2.28906,0.54296 -5.20312,0.8164 -8.73828,0.8164 h -22.86328 v -2.44922 c 0.91797,-0.24609 1.64063,-0.51562 2.17188,-0.80078 0.53125,-0.28125 0.92968,-0.67969 1.1875,-1.18359 0.26172,-0.50781 0.42968,-1.15235 0.5039,-1.92969 0.0703,-0.78125 0.10938,-1.76562 0.10938,-2.95312 v -31.98829 c 0,-1.16015 -0.0312,-2.13671 -0.0937,-2.92968 -0.0625,-0.79297 -0.22266,-1.4375 -0.48047,-1.92969 -0.26172,-0.49609 -0.65625,-0.89844 -1.1875,-1.20703 -0.53516,-0.3086 -1.26953,-0.58594 -2.21094,-0.83594 v -2.44922 h 24.3086 c 2.76953,0 5.03515,0.13672 6.78906,0.41016 2.32812,0.37109 4.34375,1.01562 6.05078,1.92969 1.53125,0.8164 2.73437,1.97656 3.59766,3.48828 0.86718,1.50781 1.30078,3.30078 1.30078,5.3789 0,5.59375 -3.36719,9.78516 -10.09375,12.58203 z m 0,0" id="path1609" style="fill:#ffffff"></path>
      <path fill-rule="nonzero" fill="#1a171b" fill-opacity="1" d="m 555.32812,400.28125 v 11.80078 h -5.08593 c -0.81641,-2.35156 -1.51172,-3.94141 -2.07813,-4.76953 -0.57031,-0.82813 -1.25,-1.48438 -2.03906,-1.96875 -0.79297,-0.48047 -2.14453,-0.72266 -4.04688,-0.72266 h -8.08984 v 17.8125 h 4.89844 c 1.08594,0 1.9414,-0.15234 2.55859,-0.46484 0.6211,-0.30859 1.13281,-0.82031 1.54297,-1.53906 0.40625,-0.71485 0.79688,-1.83203 1.16797,-3.33985 h 4.19141 v 15.06641 h -4.19141 c -0.34766,-1.43359 -0.73047,-2.52734 -1.14844,-3.28516 -0.42187,-0.7539 -0.92187,-1.28906 -1.5039,-1.61328 -0.58204,-0.32031 -1.45313,-0.48437 -2.61719,-0.48437 h -4.89844 v 19.82031 h 8.05469 c 0.86328,0 1.59375,-0.0586 2.1875,-0.16797 0.59375,-0.11328 1.125,-0.30469 1.59765,-0.57812 0.46875,-0.26954 0.91797,-0.64063 1.35157,-1.11329 0.43359,-0.46875 0.8164,-0.97656 1.15234,-1.51953 0.33203,-0.54297 0.68359,-1.26172 1.05859,-2.15234 0.3711,-0.89063 0.77735,-2.11328 1.22266,-3.67578 h 5.08203 l -0.70312,13.54687 h -36.48047 v -2.44922 c 0.91797,-0.24609 1.64062,-0.51171 2.17187,-0.79687 0.53125,-0.28516 0.92969,-0.67969 1.1875,-1.1875 0.26172,-0.50781 0.42969,-1.15234 0.50391,-1.92969 0.0703,-0.78125 0.10937,-1.76562 0.10937,-2.94922 v -31.98828 c 0,-1.16406 -0.0312,-2.14062 -0.0937,-2.93359 -0.0625,-0.78906 -0.22265,-1.4336 -0.48046,-1.92969 -0.26172,-0.49609 -0.65625,-0.89453 -1.1875,-1.20703 -0.53516,-0.30859 -1.26954,-0.58594 -2.21094,-0.83594 v -2.44531 z m 0,0" id="path1611" style="fill:#ffffff"></path>
      <path fill-rule="nonzero" fill="#1a171b" fill-opacity="1" d="m 586.08203,410.17187 v 20.63282 h 3.67188 c 1.98046,0 3.61328,-0.26563 4.89843,-0.79688 1.28516,-0.53125 2.3086,-1.27344 3.0625,-2.22656 0.75391,-0.95313 1.27344,-2.07031 1.5586,-3.35938 0.28515,-1.28515 0.42578,-2.69531 0.42578,-4.23046 0,-3.36329 -0.79297,-5.88672 -2.375,-7.57032 -1.58203,-1.67968 -3.9336,-2.52343 -7.05078,-2.52343 -2.12891,0 -3.52344,0.0273 -4.19141,0.0742 m 4.00781,46.23829 h -19.48437 v -2.44922 c 0.91406,-0.2461 1.64062,-0.51172 2.17187,-0.79688 0.53125,-0.28515 0.92969,-0.67969 1.1875,-1.1875 0.26172,-0.50781 0.42578,-1.15234 0.5,-1.92969 0.0742,-0.77734 0.11328,-1.76171 0.11328,-2.94921 v -31.98829 c 0,-1.16406 -0.0312,-2.14062 -0.0937,-2.93359 -0.0625,-0.78906 -0.22265,-1.43359 -0.48046,-1.92969 -0.26172,-0.49218 -0.65625,-0.89453 -1.19141,-1.20703 -0.53125,-0.30469 -1.26563,-0.58594 -2.20703,-0.83203 v -2.44922 h 21.63672 c 2.91797,0 5.39843,0.20313 7.4414,0.60938 2.03907,0.41015 3.82813,1.03515 5.35938,1.875 1.28906,0.69531 2.375,1.5664 3.26562,2.61718 0.89063,1.05079 1.57813,2.27735 2.0586,3.67188 0.48437,1.40234 0.72656,3.02734 0.72656,4.88281 0,2.42578 -0.42578,4.5 -1.28125,6.23438 -0.85156,1.73047 -2.00391,3.17187 -3.45313,4.32422 -1.44531,1.14843 -3.38281,2.23046 -5.80468,3.24609 v 0.37109 c 1.82812,0.79297 3.34375,1.84766 4.54687,3.17188 1.19922,1.32422 2.28125,3 3.2461,5.02734 l 2.33593,5.04688 c 1.03907,2.2539 2.07422,3.9414 3.09766,5.0664 1.02734,1.125 2.24609,1.8125 3.65625,2.0586 v 2.44922 h -14.28516 c -1.4375,-1.97657 -3.05468,-4.92188 -4.86328,-8.83204 l -2.89453,-6.34375 c -0.86719,-1.8789 -1.60937,-3.21484 -2.22656,-4.00781 -0.61719,-0.79297 -1.25391,-1.33594 -1.91016,-1.63281 -0.65625,-0.29688 -1.66406,-0.44531 -3.02344,-0.44531 h -2.15234 v 11.94922 c 0,1.85546 0.0859,3.15234 0.25781,3.89453 0.17578,0.74218 0.50782,1.33593 1.00391,1.78125 0.49219,0.44531 1.41016,0.84375 2.74609,1.1875 z m 0,0" id="path1613" style="fill:#ffffff"></path>
      <path fill-rule="nonzero" fill="#1a171b" fill-opacity="1" d="m 663.95312,421.21875 v 10.53906 h -5.08203 c -0.57031,-2.07812 -1.21875,-3.67969 -1.94922,-4.80859 -0.73046,-1.125 -1.66796,-1.96485 -2.82031,-2.51953 -1.15234,-0.5586 -2.6289,-0.83594 -4.43359,-0.83594 -2.44922,0 -4.61328,0.75 -6.4961,2.24219 -1.8789,1.5 -3.36328,3.88672 -4.45312,7.16406 -1.08594,3.27734 -1.63281,7.42969 -1.63281,12.44922 0,4.33203 0.36328,8.08594 1.09765,11.26172 0.72657,3.18359 1.83985,5.64843 3.33594,7.40625 1.49609,1.7539 3.34766,2.63281 5.55078,2.63281 2.17578,0 3.78516,-0.64844 4.82422,-1.94531 1.03906,-1.30078 1.55859,-3.3711 1.55859,-6.21875 v -1.41016 c 0,-1.87891 -0.0625,-3.22266 -0.1875,-4.02344 -0.125,-0.80468 -0.3164,-1.40625 -0.57421,-1.80078 -0.25782,-0.39844 -0.60157,-0.71875 -1.01954,-0.96484 -0.42187,-0.2461 -1.16406,-0.53125 -2.22656,-0.85547 v -2.44922 h 19 v 2.44922 c -1.23828,0.37109 -2.07812,0.79297 -2.52344,1.26172 -0.44531,0.47265 -0.75,1.09765 -0.91015,1.875 -0.16016,0.77734 -0.24219,1.875 -0.24219,3.28515 v 13.98829 l -5.34375,1.11328 -2.52344,-2.67188 c -2.9414,1.8086 -6.32031,2.71094 -10.1289,2.71094 -7.22657,0 -12.61328,-2.10938 -16.16407,-6.32813 -3.55078,-4.21875 -5.32421,-10.60546 -5.32421,-19.16796 0,-4.5 0.63281,-8.46094 1.89453,-11.875 1.26172,-3.41407 3.01172,-6.19141 5.25,-8.32813 2.23828,-2.14062 4.76172,-3.69922 7.57031,-4.67578 2.80859,-0.98047 5.82031,-1.46875 9.03516,-1.46875 5.41796,0 10.39062,0.65625 14.91796,1.96875" id="path1615" style="fill:#ffffff"></path>
    </g>
  </g>
</svg>
