<?xml version="1.0" encoding="UTF-8" standalone="no"?>
<svg
   viewBox="0 0 545.55 397.5"
   version="1.1"
   id="svg10276"
   sodipodi:docname="BVA-Logo-01.svg"
   inkscape:version="1.2.2 (732a01da63, 2022-12-09)"
   xmlns:inkscape="http://www.inkscape.org/namespaces/inkscape"
   xmlns:sodipodi="http://sodipodi.sourceforge.net/DTD/sodipodi-0.dtd"
   xmlns:xlink="http://www.w3.org/1999/xlink"
   xmlns="http://www.w3.org/2000/svg"
   xmlns:svg="http://www.w3.org/2000/svg">
  <sodipodi:namedview
     id="namedview10278"
     pagecolor="#ffffff"
     bordercolor="#666666"
     borderopacity="1.0"
     inkscape:showpageshadow="2"
     inkscape:pageopacity="0.0"
     inkscape:pagecheckerboard="0"
     inkscape:deskcolor="#d1d1d1"
     showgrid="false"
     inkscape:zoom="2.0477987"
     inkscape:cx="272.97604"
     inkscape:cy="198.75"
     inkscape:window-width="1920"
     inkscape:window-height="1017"
     inkscape:window-x="-8"
     inkscape:window-y="-8"
     inkscape:window-maximized="1"
     inkscape:current-layer="Worte_Verschoben" />
  <defs
     id="defs10182">
    <style
       id="style10166">.cls-1{fill:none;stroke-width:3px;}.cls-1,.cls-2,.cls-3,.cls-4{stroke:#1a171b;stroke-miterlimit:10;}.cls-2{fill:#f7d593;}.cls-3{fill:url(#radial-gradient);}.cls-4{fill:url(#radial-gradient-2);}.cls-5{fill:#1a171b;}</style>
    <radialGradient
       id="radial-gradient"
       cx="530.69"
       cy="321"
       r="8.09"
       gradientUnits="userSpaceOnUse">
      <stop
         offset="0"
         stop-color="#f7d593"
         id="stop10168" />
      <stop
         offset="0.22"
         stop-color="#f3d191"
         id="stop10170" />
      <stop
         offset="0.44"
         stop-color="#e7c689"
         id="stop10172" />
      <stop
         offset="0.67"
         stop-color="#d3b37d"
         id="stop10174" />
      <stop
         offset="0.89"
         stop-color="#b7996b"
         id="stop10176" />
      <stop
         offset="1"
         stop-color="#a68a61"
         id="stop10178" />
    </radialGradient>
    <radialGradient
       id="radial-gradient-2"
       cx="504.8"
       cy="322.76"
       r="10.44"
       xlink:href="#radial-gradient" />
  </defs>
  <g
     id="Layer_2"
     data-name="Layer 2">
    <g
       id="Worte_Verschoben"
       data-name="Worte Verschoben">
      <path
         class="cls-1"
         d="M97.9,109.63V43.81L169.61,1.73q35.52,20.07,71,40.13v61.2"
         id="path10184" />
      <path
         class="cls-1"
         d="M17.21,335.33c-.14-1.7,0-68.9,0-68.9H61.82v30.36l29.79-14.12V206.58l30.07-15.39"
         id="path10186" />
      <polyline
         class="cls-1"
         points="368.6 208.84 368.6 142.2 415.75 142.2 415.75 172.69 504.98 155.19 504.98 185.96 533.78 201.78 533.78 299.75"
         id="polyline10188" />
      <path
         class="cls-2"
         d="M176.24,309.09s1.76-20,0-21.91c-1.47-1.63-41.28-2.31-45,.58-5.29,4.11-3.52,20.74-2,21.13S176.24,309.09,176.24,309.09Z"
         id="path10190" />
      <path
         class="cls-2"
         d="M215.37,309.29s7-15.66-3.72-20.55-21.72-2.74-25.24,1.37c-2.12,2.47-1.17,19.18-1.17,19.18Z"
         id="path10192" />
      <path
         class="cls-2"
         d="M73.72,199l-23.86-.8c-3.21-.11-4.88,1.48-3.69,3.53s4.57,4.73,7.54,6l13.48,5.64c3,1.24,7.62,0,8.87-3l1.86-6.06C79.18,201.36,76.93,199.14,73.72,199Z"
         id="path10194" />
      <rect
         class="cls-2"
         x="33.41"
         y="309.09"
         width="30.13"
         height="19.57"
         rx="1.71"
         id="rect10196" />
      <path
         class="cls-2"
         d="M81.43,309.8l25.14-.53a2.48,2.48,0,0,0,2.39-2.14l1.05-7.5a1.09,1.09,0,0,0-.54-1.1,22.18,22.18,0,0,0-9.54-2.74c-6.26-.4-13.3.78-15.65,3.52a51.77,51.77,0,0,0-4.67,7.52A2,2,0,0,0,81.43,309.8Z"
         id="path10198" />
      <path
         class="cls-2"
         d="M43.68,217.23c6-2.57,26,.16,26,.16S78,220,75.41,228.87s-6.52,8.87-6.52,8.87L55.32,238s-11.12-.75-13.2-7.27S38.77,219.35,43.68,217.23Z"
         id="path10200" />
      <path
         class="cls-2"
         d="M30.28,243.61c-.26,4.18-1.3,11.22.52,11.74s27.65-.26,29,.52,3.78,2.35,5.09,2.35,6.39,2,7.43.52c.78-1.07.42-3.61,1.83-6,1.69-2.87,2.61-6.26.52-7.82s-9.39-3.4-13.31-3.4S30.28,243.61,30.28,243.61Z"
         id="path10202" />
      <path
         class="cls-2"
         d="M230.89,300.74l.13,15a17.43,17.43,0,0,0,7.87-1.91c3.62-2.05,6.75-5.33,6.75-8.07s-.14-4.5-.14-4.5Z"
         id="path10204" />
      <path
         class="cls-2"
         d="M285.86,314.66a9.61,9.61,0,0,0-5.26-8.46l-9.92-4.42a7.91,7.91,0,0,0-9.1,2.38l-11.15,14.93c-2,2.65-3.22,5.7-2.75,6.76s3.55,1.91,6.86,1.86l24.81-.35a6.43,6.43,0,0,0,6.25-6.09Z"
         id="path10206" />
      <path
         class="cls-2"
         d="M294.8,293.17a8.89,8.89,0,0,0-7.64-1.42,3.72,3.72,0,0,0-2.07,5.44l6.49,12.28a12.88,12.88,0,0,1,1.4,7.32c-.39,1.82,1.23,3.89,3.61,4.58l9.09,2.65c2.38.69,4.26-.82,4.18-3.37l-.34-10.89a11.46,11.46,0,0,0-3.6-7.47Z"
         id="path10208" />
      <path
         class="cls-2"
         d="M318.39,299.06c.91,3.29.35,6.38-1.25,6.85s-3.72,2.77-4.7,5.08,1.42,4.38,5.36,4.6l18.62,1.05c3.93.22,7.15-2.37,7.15-5.75V296.35c0-3.38-3.12-6.82-6.94-7.66,0,0-21.28-4.64-22.4-4.64Z"
         id="path10210" />
      <path
         class="cls-2"
         d="M469.13,206.28v-3.63a8.29,8.29,0,0,0-7.45-8.09l-20.56-1.69a8.28,8.28,0,0,0-8.67,6.76L431.33,207c-.67,4.06,2.15,8,6.26,8h24.06C465.76,215,469.13,210.39,469.13,206.28Z"
         id="path10212" />
      <path
         class="cls-2"
         d="M461,319.18l28.85-3.54c3.27-.4,4-1.77,1.54-3l-9.74-5.11c-2.42-1.27-7-1.67-10.16-.88l-5.12,1.27c-3.17.79-6.66,3.15-7.75,5.24l-1.56,3C455.93,318.2,457.71,319.59,461,319.18Z"
         id="path10214" />
      <path
         class="cls-3"
         d="M523.08,326.58c.51,2.11,3.07,3.16,5.68,2.32l7-2.26a3.83,3.83,0,0,0,2.23-5.83l-2.46-4.19a8.41,8.41,0,0,0-7.49-3.78l-.53.06c-2.73.3-4.63,2.15-4.23,4.13s.31,4.06-.22,4.64S522.57,324.46,523.08,326.58Z"
         id="path10216"
         style="fill:#f7d593;fill-opacity:1" />
      <path
         class="cls-4"
         d="M501,333.36l3.22.36c3.31.38,7.24-2.12,8.72-5.54l.63-1.45c1.48-3.43,1.48-8.33,0-10.9a8.5,8.5,0,0,0-7.73-4,15.17,15.17,0,0,0-8,3.8c-1.59,1.74-2.9,6.28-2.9,10.11S497.66,333,501,333.36Z"
         id="path10218"
         style="fill:#f7d593;fill-opacity:1" />
      <path
         class="cls-2"
         d="M412.53,206.81l-.23,4.53c-.19,3.75,1.27,7.36,3.25,8a8.81,8.81,0,0,0,6.87-1c1.8-1.23,2.55-5,1.66-8.45l-3.55-13.61c-.9-3.43-3-4-4.64-1.24A30.4,30.4,0,0,0,412.53,206.81Z"
         id="path10220" />
      <path
         class="cls-2"
         d="M389.59,222.46a18.7,18.7,0,0,1,5.14-.64c1.67.1,3.45,1,5.46,1.78s3.81-1.07,4-4l.91-13.89a5,5,0,0,0-5-5.34H387.46a7.27,7.27,0,0,0-6.67,5.18s.52,16.22.52,17Z"
         id="path10222" />
      <path
         class="cls-2"
         d="M473,199V213.9a2.69,2.69,0,0,0,2.68,2.71H500a2.71,2.71,0,0,0,2.21-4.24l-9.87-14.65a2.65,2.65,0,0,0-2.17-1.18l-14.5-.24A2.7,2.7,0,0,0,473,199Z"
         id="path10224" />
      <path
         class="cls-2"
         d="M348.61,229.77c2.07-2,6.6-4.14,10.09-4.7s4.46-4.14,2.15-8l-1.71-2.84c-2.3-3.82-6.45-7.3-9.23-7.71s-5,2.89-5,7.36v11.41C344.87,229.79,346.55,231.79,348.61,229.77Z"
         id="path10226" />
      <path
         class="cls-2"
         d="M290.88,111.4c-.63,3.64-8.16,12.34-8.16,12.34a5.08,5.08,0,0,1-7.26-.84c-3.41-4-2.2-5.86-2.2-5.86l4.1-6.55s3.81-5.07,7.57-4S291.4,108.4,290.88,111.4Z"
         id="path10228" />
      <path
         class="cls-2"
         d="M251.36,112.8s17.22,4.82,22.61-2.54S277,95.4,272.46,93c-2.72-1.45-21.1-.8-21.1-.8Z"
         id="path10230" />
      <path
         class="cls-2"
         d="M199,83.7c-1.69,0-4.54,2.62-4.54,4.33v16.76a3,3,0,0,0,3,3.06H225c2.43,0,3-4,1.59-6L219.39,87c-.52-.77-9.79-1.38-9.79-1.38Z"
         id="path10232" />
      <path
         class="cls-5"
         d="M166.17,279.36H133.74v-3.67a18.51,18.51,0,0,0,3.61-1.19,4.37,4.37,0,0,0,2-1.78,7.36,7.36,0,0,0,.83-2.89,41.39,41.39,0,0,0,.19-4.42V217.48c0-1.74,0-3.21-.16-4.4a7,7,0,0,0-.8-2.89,4.74,4.74,0,0,0-2-1.8,16.52,16.52,0,0,0-3.68-1.26v-3.66h36a71.33,71.33,0,0,1,12.38.91,33.46,33.46,0,0,1,8.93,2.81,18.64,18.64,0,0,1,5.44,3.92,16.8,16.8,0,0,1,3.43,5.51,20.4,20.4,0,0,1,1.2,7.31,18.38,18.38,0,0,1-7.88,15.82,42.78,42.78,0,0,1-9.66,4.86v.56a21.7,21.7,0,0,1,7.56,4.75,30.8,30.8,0,0,1,5.41,7.54l3.89,7.56a30,30,0,0,0,5.16,7.59,10.86,10.86,0,0,0,6.09,3.08v3.67H187.92a79.49,79.49,0,0,1-8.09-13.23L175,256.62a31.77,31.77,0,0,0-3.71-6,8.59,8.59,0,0,0-3.18-2.45,14.29,14.29,0,0,0-5-.67H159.5v17.91a27.33,27.33,0,0,0,.43,5.84,4.9,4.9,0,0,0,1.67,2.66,11.89,11.89,0,0,0,4.57,1.78Zm-6.67-69.28V241h6.12a23.57,23.57,0,0,0,8.15-1.2,12.42,12.42,0,0,0,5.1-3.33,11.78,11.78,0,0,0,2.59-5,26.16,26.16,0,0,0,.71-6.33q0-7.57-3.95-11.35T166.48,210Q161.17,210,159.5,210.08Z"
         id="path10234" />
      <path
         class="cls-5"
         d="M273.93,233.86a28.06,28.06,0,0,0-.4-5.81A4.94,4.94,0,0,0,272,225.4a12.1,12.1,0,0,0-4.57-1.83V219.9h27.18v3.67a18,18,0,0,0-3.52,1.2,4.6,4.6,0,0,0-2,1.77,6.94,6.94,0,0,0-.87,2.9c-.12,1.16-.18,2.64-.18,4.42v34.75a45.89,45.89,0,0,1-1.24,11.54A20.4,20.4,0,0,1,283,288a19.54,19.54,0,0,1-6.46,5.11,30.48,30.48,0,0,1-8.68,2.78,63.2,63.2,0,0,1-10.81.84,57.56,57.56,0,0,1-14.82-1.64,24.54,24.54,0,0,1-9.86-4.95,20,20,0,0,1-5.62-8,34.15,34.15,0,0,1-1.82-12.17v-36c0-1.74-.06-3.2-.16-4.39a6.87,6.87,0,0,0-.8-2.89,4.73,4.73,0,0,0-2-1.81,16.28,16.28,0,0,0-3.67-1.25V219.9H250.7v3.67a14.78,14.78,0,0,0-3.74,1.31,5.06,5.06,0,0,0-1.82,1.69,7,7,0,0,0-.86,2.62,32.67,32.67,0,0,0-.25,4.72v36.7a46.88,46.88,0,0,0,.62,8,16.77,16.77,0,0,0,2.25,6.2,10.71,10.71,0,0,0,4.54,4,17.34,17.34,0,0,0,7.48,1.39q6.3,0,9.39-2.28a12.06,12.06,0,0,0,4.35-6.36q1.27-4.1,1.27-12.21Z"
         id="path10236" />
      <path
         class="cls-5"
         d="M331.17,265.41c0,1.3,0,2.5.12,3.61a11.13,11.13,0,0,0,.5,2.73,4.92,4.92,0,0,0,1.08,1.78,6.08,6.08,0,0,0,1.95,1.25,16.32,16.32,0,0,0,3,.91v3.67H305.41v-3.67A18.51,18.51,0,0,0,309,274.5a4.37,4.37,0,0,0,2-1.78,7.36,7.36,0,0,0,.83-2.89,41.39,41.39,0,0,0,.19-4.42v-48c0-1.78,0-3.24-.16-4.39a7,7,0,0,0-.8-2.86,4.49,4.49,0,0,0-2-1.81,17.48,17.48,0,0,0-3.67-1.23v-3.66h32.43v3.66a14.92,14.92,0,0,0-3.73,1.31,5,5,0,0,0-1.83,1.7,6.9,6.9,0,0,0-.86,2.61,32.82,32.82,0,0,0-.25,4.73Z"
         id="path10238" />
      <path
         class="cls-5"
         d="M429.1,236.3V240a25.06,25.06,0,0,0-3.49,1.22,5.44,5.44,0,0,0-1.73,1.34,5.86,5.86,0,0,0-1.08,2.53,26.3,26.3,0,0,0-.37,5.2V312.2H406.74l-27.8-43.26q-5.62-8.79-8.28-13.79h-.56q.63,12,.62,25.24V298.3a24.84,24.84,0,0,0,.47,5.84,5,5,0,0,0,1.66,2.64,12.2,12.2,0,0,0,4.54,1.75v3.67H354v-3.67a17,17,0,0,0,3.61-1.23,4.47,4.47,0,0,0,2-1.8,7.54,7.54,0,0,0,.84-2.86,43.16,43.16,0,0,0,.18-4.34V250.2a27.12,27.12,0,0,0-.4-5.75,5,5,0,0,0-1.67-2.65A11.7,11.7,0,0,0,354,240V236.3h25l21.87,34.2q2,3.22,5.31,8.73t5.81,10.39h1q-.68-13.29-.68-29V250.26a30.67,30.67,0,0,0-.31-5.23,5.59,5.59,0,0,0-1-2.45,5.15,5.15,0,0,0-1.73-1.39,19.19,19.19,0,0,0-3.61-1.22V236.3Z"
         id="path10240" />
      <path
         class="cls-5"
         d="M505.37,226.16v17.68h-8.46a32.19,32.19,0,0,0-3.46-7.14,10.75,10.75,0,0,0-3.4-2.95q-2-1.08-6.73-1.08H469.85v26.69H478a10.51,10.51,0,0,0,4.27-.7,5.83,5.83,0,0,0,2.56-2.31,19.3,19.3,0,0,0,1.95-5h7v22.57h-7a19,19,0,0,0-1.92-4.92,6.33,6.33,0,0,0-2.5-2.42,10.2,10.2,0,0,0-4.36-.72h-8.15v29.69h13.41a22,22,0,0,0,3.64-.25,8.66,8.66,0,0,0,2.66-.86,9.5,9.5,0,0,0,2.25-1.67,14.87,14.87,0,0,0,1.92-2.28,23.68,23.68,0,0,0,1.76-3.22,48.31,48.31,0,0,0,2-5.51H506l-1.17,20.3H444.09v-3.67a18.44,18.44,0,0,0,3.61-1.2,4.35,4.35,0,0,0,2-1.77,7.42,7.42,0,0,0,.83-2.9,41.26,41.26,0,0,0,.19-4.42V240.17c0-1.74-.05-3.2-.16-4.39a6.87,6.87,0,0,0-.8-2.89,4.79,4.79,0,0,0-2-1.81,16.28,16.28,0,0,0-3.67-1.25v-3.67Z"
         id="path10242" />
      <path
         class="cls-5"
         d="M75,152.57q8.32,2.6,12.71,7.5a17.16,17.16,0,0,1,4.37,11.79,24.55,24.55,0,0,1-2,10.24A17.29,17.29,0,0,1,84,189.24a28.24,28.24,0,0,1-9.59,4.09,63,63,0,0,1-14,1.29H23.72v-3.88a17.24,17.24,0,0,0,3.49-1.26,4.42,4.42,0,0,0,1.9-1.88,8.43,8.43,0,0,0,.8-3.06q.18-1.86.18-4.68V129.17q0-2.76-.15-4.65a7.87,7.87,0,0,0-.77-3.06,4.8,4.8,0,0,0-1.91-1.91,14.54,14.54,0,0,0-3.54-1.32v-3.88h39A74.85,74.85,0,0,1,73.6,115a31,31,0,0,1,9.7,3.06,14.23,14.23,0,0,1,5.77,5.53,16.67,16.67,0,0,1,2.09,8.53Q91.16,145.4,75,152Zm-18.51-3q6,0,9.34-1.71A11.8,11.8,0,0,0,71,143q1.76-3.15,1.76-8.68a13.75,13.75,0,0,0-1.91-7.73,10.51,10.51,0,0,0-5.41-4.09,26.8,26.8,0,0,0-8.75-1.23q-4.17,0-8.1.29v28Zm-7.92,38q3.51.17,8.1.17A26.69,26.69,0,0,0,66,186.36a10.92,10.92,0,0,0,5.69-4.82c1.34-2.3,2-5.44,2-9.44a22,22,0,0,0-1.07-7.26A11.36,11.36,0,0,0,69.37,160a13.29,13.29,0,0,0-5.12-2.7,27.36,27.36,0,0,0-7.43-.85H48.54Z"
         id="path10244" />
      <path
         class="cls-5"
         d="M162,115.8a32.41,32.41,0,0,0-.39-6.14,5.29,5.29,0,0,0-1.52-2.79,10.91,10.91,0,0,0-4.4-2V101h26.18v3.88a17,17,0,0,0-3.39,1.27,4.59,4.59,0,0,0-1.9,1.88,8,8,0,0,0-.84,3.06c-.12,1.23-.17,2.79-.17,4.67v36.76a52.37,52.37,0,0,1-1.2,12.2,22.45,22.45,0,0,1-3.69,8.27,19.31,19.31,0,0,1-6.22,5.41,28,28,0,0,1-8.36,2.94,55.78,55.78,0,0,1-10.41.88,50.59,50.59,0,0,1-14.29-1.74,22.85,22.85,0,0,1-9.49-5.23,21.29,21.29,0,0,1-5.42-8.5,39.55,39.55,0,0,1-1.75-12.88v-38c0-1.84,0-3.39-.15-4.64a8,8,0,0,0-.77-3.06,4.87,4.87,0,0,0-1.91-1.91,14.92,14.92,0,0,0-3.54-1.33V101h31.25v3.88a13.67,13.67,0,0,0-3.6,1.39,5,5,0,0,0-1.76,1.79,7.7,7.7,0,0,0-.83,2.76,38.82,38.82,0,0,0-.24,5v38.82a56.2,56.2,0,0,0,.59,8.47,18.65,18.65,0,0,0,2.18,6.55,10.61,10.61,0,0,0,4.37,4.21,15.47,15.47,0,0,0,7.2,1.47c4.05,0,7.06-.8,9.05-2.41a12.87,12.87,0,0,0,4.19-6.74q1.23-4.32,1.23-12.9Z"
         id="path10246" />
      <path
         class="cls-5"
         d="M229.58,197.75H198.33v-3.88a16.9,16.9,0,0,0,3.48-1.26,4.39,4.39,0,0,0,1.91-1.88,8.64,8.64,0,0,0,.8-3.06q.18-1.86.18-4.68V132.3q0-2.76-.15-4.65a8.05,8.05,0,0,0-.77-3.06,4.8,4.8,0,0,0-1.91-1.91,14.54,14.54,0,0,0-3.54-1.32v-3.88H233a62.36,62.36,0,0,1,11.93,1,30.42,30.42,0,0,1,8.6,3,17.39,17.39,0,0,1,8.54,10,23.23,23.23,0,0,1,1.17,7.73,21.91,21.91,0,0,1-2.06,9.88,19.86,19.86,0,0,1-5.53,6.85,39.93,39.93,0,0,1-9.32,5.15v.59a20.78,20.78,0,0,1,7.29,5,32.73,32.73,0,0,1,5.21,8l3.75,8a32,32,0,0,0,5,8,10.2,10.2,0,0,0,5.86,3.26v3.88H250.53a87,87,0,0,1-7.8-14l-4.64-10.06a34.45,34.45,0,0,0-3.57-6.35,8.43,8.43,0,0,0-3.07-2.59,12.57,12.57,0,0,0-4.85-.7h-3.45V183a30.74,30.74,0,0,0,.42,6.18,5.28,5.28,0,0,0,1.6,2.82,11.14,11.14,0,0,0,4.41,1.88Zm-6.43-73.27v32.69H229a21,21,0,0,0,7.86-1.26,11.9,11.9,0,0,0,4.91-3.53,12.9,12.9,0,0,0,2.5-5.32,31.08,31.08,0,0,0,.68-6.7q0-8-3.81-12t-11.3-4Q224.75,124.36,223.15,124.48Z"
         id="path10248" />
      <path
         class="cls-5"
         d="M342.72,115.74v16.7h-8.16a27.49,27.49,0,0,0-3.12-7.61,11,11,0,0,0-4.53-4,17.95,17.95,0,0,0-17.52,2.23q-4.53,3.57-7.15,11.35t-2.62,19.73A79.58,79.58,0,0,0,301.38,172q1.75,7.56,5.36,11.74a11.29,11.29,0,0,0,8.9,4.17q5.24,0,7.73-3.09t2.5-9.85v-2.23a48.87,48.87,0,0,0-.29-6.38,7.29,7.29,0,0,0-.93-2.86A4.86,4.86,0,0,0,323,162a17.93,17.93,0,0,0-3.58-1.36v-3.88h30.48v3.88a9.53,9.53,0,0,0-4.05,2,6,6,0,0,0-1.46,3,26.92,26.92,0,0,0-.38,5.21V193l-8.57,1.76-4-4.23a30.74,30.74,0,0,1-16.25,4.29q-17.39,0-25.92-10t-8.54-30.37a53.64,53.64,0,0,1,3-18.82,34.32,34.32,0,0,1,8.43-13.2A33.28,33.28,0,0,1,304.3,115a44.2,44.2,0,0,1,14.49-2.33A86.69,86.69,0,0,1,342.72,115.74Z"
         id="path10250" />
      <path
         class="cls-5"
         d="M30.24,381.8H14.4l-1.23,3.53c-.34,1-.63,1.95-.85,2.88a12.7,12.7,0,0,0-.33,3c0,2.42,1.28,3.72,3.86,3.89v2.45H0v-2.45a4.63,4.63,0,0,0,2.41-1,8.15,8.15,0,0,0,1.89-2.23,24,24,0,0,0,1.82-4L21.6,346.59h9.91l12.24,41.56a30.54,30.54,0,0,0,1.37,4A5.48,5.48,0,0,0,46.57,394a5.68,5.68,0,0,0,2.49,1.06v2.45H28.57v-2.45A5,5,0,0,0,31.43,394a3.13,3.13,0,0,0,.93-2.42A14.6,14.6,0,0,0,32.1,389c-.17-.94-.46-2.12-.85-3.56Zm-14.43-4.34H29.17l-5.94-20.89Z"
         id="path10252" />
      <path
         class="cls-5"
         d="M77.94,337.46v2.45a10,10,0,0,0-2.11.79,3.17,3.17,0,0,0-1.21,1.17,4.9,4.9,0,0,0-.55,1.91,26.78,26.78,0,0,0-.13,3v37h7.2a7.68,7.68,0,0,0,3.45-.66A6.24,6.24,0,0,0,86.83,381a13.33,13.33,0,0,0,1.63-3.64c.46-1.5.83-2.9,1.1-4.21h5.08l-.81,15H58.46v-2.45a9.63,9.63,0,0,0,2.17-.82,2.81,2.81,0,0,0,1.19-1.2,5.28,5.28,0,0,0,.5-1.93c.08-.78.11-1.76.11-2.95V346.81c0-1.16,0-2.14-.09-2.93a4.91,4.91,0,0,0-.48-1.93,3,3,0,0,0-1.19-1.21,8.78,8.78,0,0,0-2.21-.83v-2.45Z"
         id="path10254" />
      <path
         class="cls-5"
         d="M97.44,367.76v-2.45a9.85,9.85,0,0,0,2.47-.68,3,3,0,0,0,1.35-1.21,4.93,4.93,0,0,0,.56-2c.07-.81.11-1.8.11-3v-37h-3a8.74,8.74,0,0,0-3.41.52,5.35,5.35,0,0,0-2.06,1.63,10,10,0,0,0-1.5,3c-.42,1.25-.77,2.43-1,3.54H85.82v-13H129.5v13h-5.08c-.47-1.68-.84-2.92-1.12-3.71a10.33,10.33,0,0,0-.91-2,6.91,6.91,0,0,0-1-1.39,4.93,4.93,0,0,0-1.19-.89,5.44,5.44,0,0,0-1.58-.5,14.79,14.79,0,0,0-2.47-.17h-2.67v37c0,1.31,0,2.31.11,3a5.36,5.36,0,0,0,.41,1.65,3.18,3.18,0,0,0,.73,1,4,4,0,0,0,1.18.7,8.73,8.73,0,0,0,2.06.5v2.45Z"
         id="path10256" />
      <path
         class="cls-5"
         d="M176.24,336.22v2.45a12.87,12.87,0,0,0-2.1.82,3.29,3.29,0,0,0-1,.89,4.17,4.17,0,0,0-.65,1.68,20.68,20.68,0,0,0-.22,3.47v41.34h-9.42L146.11,358c-2.26-3.91-3.91-7-5-9.2h-.33q.38,8,.37,16.85v12a18.06,18.06,0,0,0,.28,3.89,3.4,3.4,0,0,0,1,1.77,6.83,6.83,0,0,0,2.73,1.16v2.45h-14v-2.45a9.21,9.21,0,0,0,2.17-.81,2.89,2.89,0,0,0,1.19-1.21,5.17,5.17,0,0,0,.5-1.91c.07-.77.11-1.73.11-2.89V345.5a20.25,20.25,0,0,0-.24-3.84,3.34,3.34,0,0,0-1-1.77,6.72,6.72,0,0,0-2.73-1.22v-2.45h15L159.32,359c.81,1.44,1.88,3.38,3.19,5.83s2.47,4.76,3.49,6.94h.59q-.41-8.87-.41-19.37v-6.91a23.56,23.56,0,0,0-.18-3.48,4.2,4.2,0,0,0-.58-1.64,3,3,0,0,0-1-.92,10.74,10.74,0,0,0-2.17-.82v-2.45Z"
         id="path10258" />
      <path
         class="cls-5"
         d="M220.56,333.47a20.73,20.73,0,0,0-.25-3.88,3.31,3.31,0,0,0-.94-1.76,6.76,6.76,0,0,0-2.75-1.23v-2.45H233v2.45a9.77,9.77,0,0,0-2.11.8,2.85,2.85,0,0,0-1.19,1.19,5,5,0,0,0-.52,1.93c-.08.78-.11,1.76-.11,3v23.19a33.38,33.38,0,0,1-.75,7.7,14.16,14.16,0,0,1-2.3,5.21A12.22,12.22,0,0,1,222.1,373a17.46,17.46,0,0,1-5.22,1.85,34.57,34.57,0,0,1-6.49.56,31.65,31.65,0,0,1-8.91-1.09,14.3,14.3,0,0,1-5.92-3.31,13.49,13.49,0,0,1-3.37-5.36,25.2,25.2,0,0,1-1.1-8.13v-24c0-1.16,0-2.14-.09-2.93a5,5,0,0,0-.48-1.93,3,3,0,0,0-1.19-1.2,9.15,9.15,0,0,0-2.21-.84v-2.45H206.6v2.45a8.26,8.26,0,0,0-2.24.87,3.29,3.29,0,0,0-1.1,1.13,5.26,5.26,0,0,0-.52,1.75,24.67,24.67,0,0,0-.15,3.15V358a34.91,34.91,0,0,0,.38,5.34,11.73,11.73,0,0,0,1.35,4.14,6.7,6.7,0,0,0,2.73,2.65,9.5,9.5,0,0,0,4.49.93q3.78,0,5.64-1.52a8.16,8.16,0,0,0,2.62-4.25,32.91,32.91,0,0,0,.76-8.15Z"
         id="path10260" />
      <path
         class="cls-5"
         d="M249,375.6a12.85,12.85,0,0,0,3.1,6.59c1.44,1.45,3.57,2.17,6.36,2.17a9.92,9.92,0,0,0,3.94-.74,6.12,6.12,0,0,0,2.8-2.39,7.57,7.57,0,0,0,1-4.14,8.76,8.76,0,0,0-.85-4,9.93,9.93,0,0,0-2.74-3.21,31.43,31.43,0,0,0-5.27-3.23,49.67,49.67,0,0,1-5.24-3,20.2,20.2,0,0,1-4-3.44,14.45,14.45,0,0,1-2.56-4.1,13.23,13.23,0,0,1-.91-5,13,13,0,0,1,2.27-7.75,13.92,13.92,0,0,1,6.55-4.85,27.5,27.5,0,0,1,9.92-1.65,55.19,55.19,0,0,1,6.31.35,64.22,64.22,0,0,1,6.87,1.25v10.76h-5.09a15.62,15.62,0,0,0-1.8-4.66A6.94,6.94,0,0,0,267,342a10.36,10.36,0,0,0-7.91-.07,6,6,0,0,0-2.63,2.2,6.27,6.27,0,0,0-1,3.55,7.84,7.84,0,0,0,.84,3.73,9.73,9.73,0,0,0,2.8,3.08,40.56,40.56,0,0,0,5.71,3.43A36.61,36.61,0,0,1,272,362.6a13.8,13.8,0,0,1,5.11,11.22,14.57,14.57,0,0,1-2.12,7.93,13.45,13.45,0,0,1-6.16,5.15,22.8,22.8,0,0,1-9.35,1.8,77.34,77.34,0,0,1-7.88-.42,64.87,64.87,0,0,1-7.7-1.25V375.6Z"
         id="path10262" />
      <path
         class="cls-5"
         d="M298.5,367.78a12.89,12.89,0,0,0,3.1,6.59c1.45,1.44,3.57,2.17,6.36,2.17a9.92,9.92,0,0,0,3.94-.75,6.12,6.12,0,0,0,2.8-2.39,7.57,7.57,0,0,0,1.06-4.14,8.76,8.76,0,0,0-.86-4,10.14,10.14,0,0,0-2.74-3.21,30.83,30.83,0,0,0-5.27-3.22,49.67,49.67,0,0,1-5.24-3,20.39,20.39,0,0,1-4-3.43,14.4,14.4,0,0,1-2.57-4.1,13.31,13.31,0,0,1-.9-5,13.05,13.05,0,0,1,2.26-7.76,13.84,13.84,0,0,1,6.55-4.84,27.52,27.52,0,0,1,9.93-1.65,53,53,0,0,1,6.3.35,63.52,63.52,0,0,1,6.87,1.24v10.76H321a15.82,15.82,0,0,0-1.8-4.65,6.92,6.92,0,0,0-2.73-2.55,9.25,9.25,0,0,0-4.12-.81,9.35,9.35,0,0,0-3.79.74,6,6,0,0,0-2.63,2.21,6.34,6.34,0,0,0-1,3.54,7.81,7.81,0,0,0,.84,3.73,9.85,9.85,0,0,0,2.8,3.08,39.26,39.26,0,0,0,5.72,3.43,37.71,37.71,0,0,1,7.18,4.66,13.76,13.76,0,0,1,5.1,11.23,14.56,14.56,0,0,1-2.12,7.92,13.53,13.53,0,0,1-6.16,5.16,22.77,22.77,0,0,1-9.35,1.8,74.66,74.66,0,0,1-7.88-.43,65.25,65.25,0,0,1-7.7-1.24V367.78Z"
         id="path10264" />
      <path
         class="cls-5"
         d="M372.22,346.71a17.07,17.07,0,0,1,7.93,4.73,10.91,10.91,0,0,1,2.72,7.44,15.54,15.54,0,0,1-1.24,6.46,10.92,10.92,0,0,1-3.78,4.51,17.53,17.53,0,0,1-6,2.57,38.39,38.39,0,0,1-8.74.82H340.27v-2.45a10.24,10.24,0,0,0,2.17-.8,2.77,2.77,0,0,0,1.19-1.18,5.28,5.28,0,0,0,.5-1.93c.08-.78.11-1.77.11-2.95v-32c0-1.16,0-2.14-.09-2.93a5,5,0,0,0-.48-1.93,3,3,0,0,0-1.19-1.21,8.78,8.78,0,0,0-2.21-.83v-2.45h24.31a46.39,46.39,0,0,1,6.79.4,19.47,19.47,0,0,1,6.05,1.93,9,9,0,0,1,3.6,3.49,10.71,10.71,0,0,1,1.3,5.38q0,8.4-10.1,12.58Zm-11.54-1.93a13,13,0,0,0,5.83-1.08,7.42,7.42,0,0,0,3.21-3.06,11.41,11.41,0,0,0,1.09-5.47,8.77,8.77,0,0,0-1.18-4.88,6.58,6.58,0,0,0-3.38-2.58,16.44,16.44,0,0,0-5.46-.78q-2.6,0-5,.18v17.67Zm-4.93,24c1.46.07,3.14.11,5,.11a16.5,16.5,0,0,0,5.81-.87,6.86,6.86,0,0,0,3.55-3,11.85,11.85,0,0,0,1.26-6,14.16,14.16,0,0,0-.67-4.59,7.18,7.18,0,0,0-2-3.08,8.48,8.48,0,0,0-3.2-1.7,16.81,16.81,0,0,0-4.63-.54h-5.16Z"
         id="path10266" />
      <path
         class="cls-5"
         d="M432.43,316.33v11.8h-5.08a22.83,22.83,0,0,0-2.08-4.77,6.7,6.7,0,0,0-2-2,8.28,8.28,0,0,0-4.05-.72h-8.09v17.81H416a5.8,5.8,0,0,0,2.56-.46,3.68,3.68,0,0,0,1.54-1.54,13.69,13.69,0,0,0,1.17-3.34h4.2V348.2h-4.2a13.22,13.22,0,0,0-1.15-3.28,4,4,0,0,0-1.5-1.62,5.58,5.58,0,0,0-2.62-.48h-4.9v19.82h8.06a12.33,12.33,0,0,0,2.19-.17,5,5,0,0,0,1.59-.57,6.26,6.26,0,0,0,1.36-1.12,10.11,10.11,0,0,0,1.15-1.52,17.25,17.25,0,0,0,1.06-2.15,36.56,36.56,0,0,0,1.22-3.68h5.08L432.1,367H395.62v-2.45a10.24,10.24,0,0,0,2.17-.8,2.77,2.77,0,0,0,1.19-1.18,5.33,5.33,0,0,0,.5-1.93c.07-.78.11-1.77.11-2.95v-32c0-1.16,0-2.14-.09-2.93a4.91,4.91,0,0,0-.48-1.93,3,3,0,0,0-1.19-1.21,9.15,9.15,0,0,0-2.21-.84v-2.44Z"
         id="path10268" />
      <path
         class="cls-5"
         d="M467.19,372.46H447.71V370a10.24,10.24,0,0,0,2.17-.8,2.74,2.74,0,0,0,1.19-1.19,5.22,5.22,0,0,0,.5-1.93c.08-.78.11-1.76.11-2.95v-32c0-1.17,0-2.14-.09-2.94a5,5,0,0,0-.48-1.93,3,3,0,0,0-1.19-1.2,9.15,9.15,0,0,0-2.21-.84V321.8h21.64a38.39,38.39,0,0,1,7.44.62,18.49,18.49,0,0,1,5.36,1.87,11.25,11.25,0,0,1,3.27,2.62,11.44,11.44,0,0,1,2.06,3.67,15,15,0,0,1,.72,4.88,14,14,0,0,1-1.28,6.23,12.59,12.59,0,0,1-3.45,4.33,24.73,24.73,0,0,1-5.81,3.24v.38a13,13,0,0,1,4.55,3.17,20.69,20.69,0,0,1,3.24,5l2.34,5a20.07,20.07,0,0,0,3.1,5.07,6.32,6.32,0,0,0,3.65,2.06v2.45H480.26a54.1,54.1,0,0,1-4.86-8.83l-2.9-6.35a21.32,21.32,0,0,0-2.23-4,5.23,5.23,0,0,0-1.91-1.63,7.62,7.62,0,0,0-3-.45h-2.15v11.95a19.19,19.19,0,0,0,.26,3.9,3.27,3.27,0,0,0,1,1.78,6.83,6.83,0,0,0,2.74,1.19Zm-4-46.24v20.63h3.67a12.78,12.78,0,0,0,4.9-.8,7.36,7.36,0,0,0,3.06-2.22,8.26,8.26,0,0,0,1.56-3.36,19.93,19.93,0,0,0,.43-4.23c0-3.36-.8-5.89-2.38-7.57s-3.93-2.52-7.05-2.52C465.25,326.15,463.86,326.17,463.19,326.22Z"
         id="path10270" />
      <path
         class="cls-5"
         d="M541.06,337.26V347.8H536a17.4,17.4,0,0,0-2-4.8,6.92,6.92,0,0,0-2.82-2.53,10.32,10.32,0,0,0-4.44-.83,10.15,10.15,0,0,0-6.49,2.24,14.84,14.84,0,0,0-4.45,7.17,40,40,0,0,0-1.64,12.45,50.79,50.79,0,0,0,1.1,11.26,17.14,17.14,0,0,0,3.34,7.4,7,7,0,0,0,5.55,2.64,5.81,5.81,0,0,0,4.82-1.95q1.56-2,1.56-6.22v-1.41a28.7,28.7,0,0,0-.19-4,4.52,4.52,0,0,0-.57-1.8,3.06,3.06,0,0,0-1-1,11.27,11.27,0,0,0-2.23-.85v-2.45h19v2.45a5.82,5.82,0,0,0-2.52,1.26,3.7,3.7,0,0,0-.91,1.87,17.35,17.35,0,0,0-.24,3.29v14l-5.35,1.11L534,384.43a18.93,18.93,0,0,1-10.13,2.71q-10.85,0-16.16-6.33t-5.33-19.17a34.18,34.18,0,0,1,1.89-11.87,21.84,21.84,0,0,1,5.26-8.33,20.68,20.68,0,0,1,7.57-4.68,27.44,27.44,0,0,1,9-1.46A53.55,53.55,0,0,1,541.06,337.26Z"
         id="path10272" />
    </g>
  </g>
</svg>
